# Blender 4.4.1
# www.blender.org
o BouncerBase
v 29.201038 -60.737614 14.592367
v 31.081163 -65.157188 -5.881272
v 16.530254 -12.690649 8.551319
v 51.615490 31.220989 9.635463
v 45.111965 44.714066 -11.223703
v 29.617020 53.009411 9.980940
v 24.571236 70.082855 -1.531608
v 27.885876 64.816559 -12.990015
v 0.000000 64.991432 -11.265568
v 15.818872 -99.247177 5.329952
v 0.000000 -42.334927 9.196621
v 0.000000 67.668068 14.083807
v 0.000000 -74.871193 0.000000
v 7.430462 -112.292953 -6.722333
v 0.000000 -60.069782 0.273640
v 7.396252 -101.929161 -15.555951
v 55.196373 -28.094618 -3.407187
v 25.721062 15.056572 20.867140
v 59.341705 20.965714 3.331017
v 64.673187 -26.152681 6.304685
v 0.000000 33.707672 16.844635
v 0.000000 -17.114676 18.886953
v 34.564064 -104.091171 -4.220703
v 54.796162 -52.263580 10.095865
v 50.060574 -53.869133 -10.466699
v 59.113770 -58.452015 0.239626
v 32.828011 9.086766 28.233080
v 0.000000 33.707672 20.640886
v 0.000000 -17.114676 31.155270
v 0.000000 73.814415 -0.347518
v 27.109612 28.350391 16.869162
v 44.646374 52.567448 19.668947
v 57.815441 0.123454 11.168585
v 71.304512 -13.655451 17.066223
v 44.420624 -11.882666 14.135072
v 35.717205 -10.938701 13.151332
v 25.556345 -105.288857 -16.527264
v 23.115639 -114.533386 -5.922793
v 36.912888 -19.490597 -8.101786
v -29.201038 -60.737614 14.592367
v -31.081163 -65.157188 -5.881272
v -16.530254 -12.690649 8.551319
v -51.615490 31.220989 9.635463
v -45.111965 44.714066 -11.223703
v -29.617020 53.009411 9.980940
v -24.571236 70.082855 -1.531608
v -27.885876 64.816559 -12.990015
v -15.818872 -99.247177 5.329952
v -7.430462 -112.292953 -6.722333
v -7.396252 -101.929161 -15.555951
v -55.196373 -28.094618 -3.407187
v -25.721062 15.056572 20.867140
v -59.341705 20.965714 3.331017
v -64.673187 -26.152681 6.304685
v -34.564064 -104.091171 -4.220703
v -54.796162 -52.263580 10.095865
v -50.060574 -53.869133 -10.466699
v -59.113770 -58.452015 0.239626
v -32.828011 9.086766 28.233080
v -27.109612 28.350391 16.869162
v -44.646374 52.567448 19.668947
v -57.815441 0.123454 11.168585
v -71.304512 -13.655451 17.066223
v -44.420624 -11.882666 14.135072
v -35.717205 -10.938701 13.151332
v -25.556345 -105.288857 -16.527264
v -23.115639 -114.533386 -5.922793
v -36.912888 -19.490597 -8.101786
vn 0.0268 -0.0437 -0.9987
vn -0.0062 0.2608 -0.9654
vn -0.0532 0.2655 -0.9626
vn -0.2294 0.2446 -0.9421
vn 0.0048 -0.1793 0.9838
vn -0.0845 -0.3807 0.9208
vn 0.0732 -0.5683 0.8195
vn -0.3466 -0.4900 0.7999
vn -0.0000 -0.1853 0.9827
vn -0.0000 -0.3003 0.9538
vn 0.4521 -0.8728 0.1842
vn 0.2125 -0.9608 0.1779
vn 0.9810 -0.1584 0.1118
vn -0.3660 -0.0973 -0.9255
vn -0.1728 -0.0529 -0.9835
vn -0.2031 -0.2019 -0.9581
vn 0.0452 -0.2379 -0.9702
vn 0.8156 0.5135 0.2667
vn 0.8428 0.5375 -0.0300
vn 0.4216 0.8986 0.1218
vn -0.9540 -0.0977 -0.2836
vn -0.0000 -0.3259 -0.9454
vn 0.2607 0.0327 0.9649
vn 0.2139 0.1036 0.9714
vn 0.3935 0.0122 0.9193
vn 0.1128 0.1792 0.9773
vn -0.0000 0.1804 0.9836
vn 0.9742 0.2229 -0.0366
vn 0.8399 0.1361 0.5254
vn 0.7939 0.0367 -0.6069
vn 0.7361 0.0226 -0.6765
vn 0.5097 0.8282 -0.2332
vn -0.0000 0.8205 -0.5717
vn 0.7126 -0.1390 -0.6877
vn 0.7149 -0.1295 -0.6871
vn -0.1472 0.1233 -0.9814
vn 0.1273 -0.0166 -0.9917
vn 0.6656 -0.2909 -0.6873
vn 0.4103 -0.3881 0.8253
vn 0.4822 -0.2273 0.8461
vn 0.3512 -0.0683 0.9338
vn 0.6321 -0.3093 0.7105
vn -0.9932 -0.0919 -0.0714
vn -0.3535 0.2255 -0.9079
vn -0.0000 -0.1739 0.9848
vn -0.2008 -0.0597 -0.9778
vn -0.0000 0.2026 0.9793
vn -0.0743 0.2020 0.9766
vn -0.0000 -0.8342 -0.5515
vn 0.9037 0.3857 -0.1860
vn 0.8338 -0.3733 -0.4067
vn -0.0000 0.9973 0.0733
vn -0.0000 0.9931 -0.1174
vn 0.5191 0.5780 0.6296
vn -0.0000 0.8352 0.5499
vn -0.0407 -0.0856 0.9955
vn 0.3025 -0.3228 0.8968
vn -0.1378 -0.0147 0.9904
vn -0.5145 0.2788 0.8109
vn 0.4805 0.4966 -0.7228
vn 0.6202 0.2963 -0.7263
vn 0.0375 0.0401 0.9985
vn 0.1483 0.0782 0.9859
vn 0.2120 0.0131 0.9772
vn -0.0814 0.3238 0.9426
vn -0.1147 -0.1066 0.9877
vn -0.1223 -0.2794 0.9524
vn -0.1256 -0.6083 0.7837
vn -0.1181 -0.6917 -0.7124
vn -0.0268 -0.0437 -0.9987
vn 0.0532 0.2655 -0.9626
vn 0.0062 0.2608 -0.9654
vn 0.2294 0.2446 -0.9421
vn -0.0048 -0.1793 0.9838
vn -0.0732 -0.5683 0.8195
vn 0.0845 -0.3807 0.9208
vn 0.3466 -0.4900 0.7999
vn -0.4521 -0.8728 0.1842
vn -0.9810 -0.1584 0.1118
vn -0.2125 -0.9608 0.1779
vn 0.3660 -0.0973 -0.9255
vn 0.2031 -0.2019 -0.9581
vn 0.1728 -0.0529 -0.9835
vn -0.0452 -0.2379 -0.9702
vn -0.8156 0.5135 0.2667
vn -0.4216 0.8986 0.1218
vn -0.8428 0.5375 -0.0300
vn 0.9540 -0.0977 -0.2836
vn -0.3935 0.0122 0.9193
vn -0.2139 0.1036 0.9714
vn -0.2607 0.0327 0.9649
vn -0.1128 0.1792 0.9773
vn -0.9742 0.2229 -0.0366
vn -0.8399 0.1361 0.5254
vn -0.7361 0.0226 -0.6765
vn -0.7939 0.0367 -0.6069
vn -0.5097 0.8282 -0.2332
vn -0.7149 -0.1295 -0.6871
vn -0.7126 -0.1390 -0.6877
vn 0.1472 0.1233 -0.9814
vn -0.1273 -0.0166 -0.9917
vn -0.6656 -0.2909 -0.6873
vn -0.4822 -0.2273 0.8461
vn -0.4103 -0.3881 0.8253
vn -0.3512 -0.0683 0.9338
vn -0.6321 -0.3093 0.7105
vn 0.9932 -0.0919 -0.0714
vn 0.3535 0.2255 -0.9079
vn 0.2008 -0.0597 -0.9778
vn 0.0743 0.2020 0.9766
vn -0.8338 -0.3733 -0.4067
vn -0.9037 0.3857 -0.1860
vn -0.5191 0.5780 0.6296
vn 0.0407 -0.0856 0.9955
vn 0.1378 -0.0147 0.9904
vn -0.3025 -0.3228 0.8968
vn 0.5145 0.2788 0.8109
vn -0.4805 0.4966 -0.7228
vn -0.6202 0.2963 -0.7263
vn -0.0375 0.0401 0.9985
vn -0.2120 0.0131 0.9772
vn -0.1483 0.0782 0.9859
vn 0.0814 0.3238 0.9426
vn 0.1223 -0.2794 0.9524
vn 0.1147 -0.1066 0.9877
vn 0.1256 -0.6083 0.7837
vn 0.1181 -0.6917 -0.7124
vt 0.298123 0.551568
vt 0.361415 0.059934
vt 0.234074 0.077771
vt 0.182210 0.300016
vt 0.704763 0.285619
vt 0.610925 0.081160
vt 0.662091 0.000000
vt 0.552104 0.011895
vt 0.500000 0.383325
vt 0.500000 0.210580
vt 0.849713 0.006372
vt 0.679206 0.049082
vt 0.501643 0.865649
vt 0.351502 0.530770
vt 0.085746 0.512813
vt 0.377750 0.963079
vt 0.182210 0.964007
vt 0.861937 0.773858
vt 0.816333 0.845497
vt 0.672298 0.980188
vt 0.551864 0.066920
vt 0.500000 0.289165
vt 0.750455 0.550018
vt 0.690097 0.758617
vt 0.680361 0.688035
vt 0.707680 0.889539
vt 0.565108 0.967367
vt 0.565108 0.787060
vt 0.916115 0.719409
vt 0.905412 0.608751
vt 0.953500 0.469242
vt 0.887047 0.458932
vt 0.695541 0.952227
vt 0.500000 0.953156
vt 0.995127 0.268301
vt 0.931644 0.292633
vt 0.535024 0.026525
vt 0.332900 0.552473
vt 0.530621 0.489469
vt 0.987300 0.001184
vt 0.964851 0.301157
vt 0.500000 0.517228
vt 0.565108 0.517228
vt 0.730196 0.656340
vt 0.595703 0.500626
vt 0.549501 0.644090
vt 0.832735 0.644621
vt 0.810547 0.478165
vt 0.544922 0.802685
vt 0.837891 0.786084
vt 0.500000 1.000000
vt 0.500000 0.967367
vt 0.813068 0.887193
vt 0.754176 0.634115
vt 0.706089 0.773623
vt 0.800677 0.700466
vt 0.811485 0.545006
vt 0.372342 0.506646
vt 0.510220 0.040476
s 1
f 3/1/1 37/2/2 16/3/3
f 15/4/4 3/1/1 16/3/3
f 1/5/5 10/6/6 38/7/7
f 14/8/8 10/6/6 11/9/9 13/10/10
f 2/11/11 1/5/12 38/7/13 37/12/13
f 5/13/14 39/14/15 3/15/1 8/16/16
f 8/16/16 3/1/1 9/17/17
f 4/18/18 5/19/19 7/20/20
f 16/21/21 14/8/21 13/10/22 15/22/22
f 1/5/5 36/23/23 31/24/24 18/25/25
f 18/25/25 31/24/24 6/26/26 12/27/27 21/28/27
f 5/19/19 4/18/18 19/29/28
f 19/29/28 4/18/18 33/30/29
f 5/19/19 19/29/28 20/31/30 17/32/31
f 8/33/32 9/34/33 7/20/20
f 17/32/31 20/31/30 26/35/34 25/36/35
f 2/37/36 39/38/15 17/39/37
f 23/40/38 25/36/35 26/35/34
f 1/5/5 23/40/39 24/41/40
f 20/31/41 1/5/5 24/41/40 26/35/42
f 1/5/12 2/11/11 23/40/43
f 2/11/36 17/32/37 25/36/44
f 10/6/6 18/25/25 22/42/45 11/9/9
f 25/36/44 23/40/46 2/11/36
f 24/41/40 23/40/39 26/35/42
f 1/5/5 18/25/25 10/6/6
f 29/43/47 27/44/48 28/28/47
f 22/45/49 18/46/50 27/47/51 29/48/49
f 18/46/50 21/49/52 28/50/52 27/47/51
f 9/34/33 30/51/53 7/20/20
f 6/26/54 4/18/18 7/20/20
f 5/19/19 8/33/32 7/20/20
f 7/20/20 30/51/53 12/52/55
f 31/24/56 4/18/57 32/53/58
f 6/26/59 31/24/56 32/53/58
f 4/18/60 6/26/60 32/53/60
f 12/52/55 6/26/54 7/20/20
f 20/54/61 33/55/61 34/56/61
f 33/30/29 20/31/30 19/29/28
f 35/57/62 33/30/63 4/18/64
f 33/55/65 35/57/66 34/56/67
f 1/5/5 20/31/41 35/57/62
f 9/17/17 3/1/1 15/4/4
f 1/5/5 35/57/62 36/23/23
f 35/57/66 20/54/68 34/56/67
f 36/23/23 35/57/62 4/18/64
f 31/24/24 36/23/23 4/18/64
f 37/12/69 38/7/69 14/8/69 16/21/69
f 38/7/7 10/6/6 14/8/8
f 37/2/2 3/58/1 2/59/36
f 17/39/37 39/38/15 5/13/14
f 3/15/1 39/14/15 2/37/36
f 42/1/70 50/3/71 66/2/72
f 15/4/73 50/3/71 42/1/70
f 40/5/74 67/7/75 48/6/76
f 49/8/77 13/10/10 11/9/9 48/6/76
f 41/11/78 66/12/79 67/7/79 40/5/80
f 44/13/81 47/16/82 42/15/70 68/14/83
f 47/16/82 9/17/84 42/1/70
f 43/18/85 46/20/86 44/19/87
f 50/21/88 15/22/22 13/10/22 49/8/88
f 40/5/74 52/25/89 60/24/90 65/23/91
f 52/25/89 21/28/27 12/27/27 45/26/92 60/24/90
f 44/19/87 53/29/93 43/18/85
f 53/29/93 62/30/94 43/18/85
f 44/19/87 51/32/95 54/31/96 53/29/93
f 47/33/97 46/20/86 9/34/33
f 51/32/95 57/36/98 58/35/99 54/31/96
f 41/37/100 51/39/101 68/38/83
f 55/40/102 58/35/99 57/36/98
f 40/5/74 56/41/103 55/40/104
f 54/31/105 58/35/106 56/41/103 40/5/74
f 40/5/80 55/40/107 41/11/78
f 41/11/100 57/36/108 51/32/101
f 48/6/76 11/9/9 22/42/45 52/25/89
f 57/36/108 41/11/100 55/40/109
f 56/41/103 58/35/106 55/40/104
f 40/5/74 48/6/76 52/25/89
f 29/43/47 28/28/47 59/44/110
f 22/45/49 29/48/49 59/47/111 52/46/112
f 52/46/112 59/47/111 28/50/52 21/49/52
f 9/34/33 46/20/86 30/51/53
f 45/26/113 46/20/86 43/18/85
f 44/19/87 46/20/86 47/33/97
f 46/20/86 12/52/55 30/51/53
f 60/24/114 61/53/115 43/18/116
f 45/26/117 61/53/115 60/24/114
f 43/18/118 61/53/118 45/26/118
f 12/52/55 46/20/86 45/26/113
f 54/54/119 63/56/119 62/55/119
f 62/30/94 53/29/93 54/31/96
f 64/57/120 43/18/121 62/30/122
f 62/55/123 63/56/124 64/57/125
f 40/5/74 64/57/120 54/31/105
f 9/17/84 15/4/73 42/1/70
f 40/5/74 65/23/91 64/57/120
f 64/57/125 63/56/124 54/54/126
f 65/23/91 43/18/121 64/57/120
f 60/24/90 43/18/121 65/23/91
f 66/12/127 50/21/127 49/8/127 67/7/127
f 67/7/75 49/8/77 48/6/76
f 66/2/72 41/59/100 42/58/70
f 51/39/101 44/13/81 68/38/83
f 42/15/70 41/37/100 68/14/83
