# Blender 4.4.1
# www.blender.org
o BouncerBase
v 50.491867 23.688236 9.961160
v 65.157188 31.081163 -5.881272
v 16.090622 26.721569 0.224766
v -31.220989 51.615490 14.317144
v -44.714066 45.111965 -11.223703
v -53.009411 29.617020 9.980940
v -70.082855 24.571236 -1.531608
v -64.816559 27.885876 -12.990015
v -64.991432 0.000000 -11.265568
v 42.334927 0.000000 9.196621
v -67.668068 0.000000 14.083807
v 74.871193 0.000000 0.000000
v 112.292953 7.430462 -6.722333
v 60.069782 0.000000 0.273640
v 101.929161 7.396252 -15.555951
v 28.094618 55.196373 -3.407187
v -15.056572 25.721062 20.867140
v -5.290483 55.986588 14.317144
v 26.152681 64.185097 14.317144
v -33.707672 0.000000 16.844635
v 17.114676 0.000000 18.886953
v 104.091171 34.564064 -4.220703
v 53.869133 50.060574 -10.466699
v 58.452015 59.113770 14.317144
v -9.086766 32.828011 28.233080
v -33.707672 0.000000 20.640886
v 17.114676 0.000000 31.155270
v -73.814415 0.000000 -0.347518
v -28.350391 27.109612 16.869162
v -43.146095 43.072392 19.668947
v 11.410684 43.645752 20.001335
v 105.288857 25.556345 -16.527264
v 114.533386 23.115639 -5.922793
v -13.483284 54.209831 16.955614
v -20.561483 24.314014 16.073690
v 0.468053 25.886946 22.180227
v 20.058901 54.209831 16.955614
v 29.468178 25.156904 14.632529
v -36.729485 33.011909 23.661242
v 20.058901 2.076218 20.457218
v 76.044640 17.181355 8.424171
v 1.725582 43.741390 34.703880
v 45.900707 29.735970 27.011559
v 50.491867 -23.688236 9.961160
v 65.157188 -31.081163 -5.881272
v 16.090622 -26.721569 0.224766
v -31.220989 -51.615490 14.317144
v -44.714066 -45.111965 -11.223703
v -53.009411 -29.617020 9.980940
v -70.082855 -24.571236 -1.531608
v -64.816559 -27.885876 -12.990015
v 112.292953 -7.430462 -6.722333
v 101.929161 -7.396252 -15.555951
v 28.094618 -55.196373 -3.407187
v -15.056572 -25.721062 20.867140
v -5.290483 -55.986588 14.317144
v 26.152681 -64.185097 14.317144
v 104.091171 -34.564064 -4.220703
v 53.869133 -50.060574 -10.466699
v 58.452015 -59.113770 14.317144
v -9.086766 -32.828011 28.233080
v -28.350391 -27.109612 16.869162
v -43.146095 -43.072392 19.668947
v 11.410684 -43.645752 20.001335
v 105.288857 -25.556345 -16.527264
v 114.533386 -23.115639 -5.922793
v -13.483284 -54.209831 16.955614
v -20.561483 -24.314014 16.073690
v 0.468053 -25.886946 22.180227
v 20.058901 -54.209831 16.955614
v 29.468178 -25.156904 14.632529
v -36.729485 -33.011909 23.661242
v 20.058901 -2.076218 20.457218
v 76.044640 -17.181355 8.424171
v 1.725582 -43.741390 34.703880
v 45.900707 -29.735970 27.011559
vn 0.0395 -0.0301 -0.9988
vn -0.1841 0.0314 -0.9824
vn -0.2029 -0.1064 -0.9734
vn -0.1960 -0.3243 -0.9254
vn 0.2384 -0.1019 0.9658
vn 0.2343 -0.0781 0.9690
vn 0.2288 -0.0000 0.9735
vn 0.2383 -0.0000 0.9712
vn 0.9657 0.1714 0.1949
vn 0.2451 0.4264 0.8707
vn 0.1482 0.9166 0.3712
vn 0.1545 -0.1010 -0.9828
vn 0.1598 -0.0693 -0.9847
vn 0.1466 -0.0196 -0.9890
vn -0.3227 0.9461 -0.0279
vn -0.4850 0.8744 -0.0155
vn -0.9011 0.4168 0.1193
vn 0.0977 -0.9540 -0.2836
vn 0.3259 -0.0000 -0.9454
vn 0.0728 0.0822 0.9939
vn -0.1079 0.2089 0.9720
vn -0.1686 0.1363 0.9762
vn -0.1792 0.1128 0.9773
vn -0.1804 -0.0000 0.9836
vn -0.1460 0.9480 -0.2829
vn -0.0212 0.9355 -0.3526
vn -0.0021 0.9333 -0.3590
vn -0.8282 0.5097 -0.2332
vn -0.8205 -0.0000 -0.5717
vn 0.2072 0.8980 -0.3881
vn 0.2140 0.8967 -0.3875
vn -0.0996 0.1503 -0.9836
vn -0.0569 -0.1649 -0.9847
vn 0.3156 0.8710 -0.3765
vn 0.1712 -0.1581 0.9725
vn 0.1559 0.0628 0.9858
vn 0.0982 -0.9336 -0.3447
vn -0.2255 -0.3535 -0.9079
vn 0.2224 -0.0000 0.9749
vn 0.0597 -0.2008 -0.9778
vn -0.2026 -0.0000 0.9793
vn -0.2020 -0.0743 0.9766
vn 0.8342 -0.0000 -0.5515
vn -0.3857 0.9037 -0.1860
vn 0.3733 0.8338 -0.4067
vn -0.9973 -0.0000 0.0733
vn -0.9931 -0.0000 -0.1174
vn -0.5885 0.4316 0.6836
vn -0.8352 -0.0000 0.5499
vn -0.0114 -0.1830 0.9830
vn 0.3233 0.1354 0.9366
vn 0.0299 -0.1457 0.9889
vn -0.2837 -0.4146 0.8647
vn -0.6422 0.6983 -0.3161
vn -0.0661 0.3422 0.9373
vn -0.1030 0.1503 0.9833
vn 0.6917 -0.1181 -0.7124
vn -0.3715 0.6247 0.6868
vn 0.1971 0.7417 0.6411
vn 0.5486 0.7395 0.3901
vn -0.2216 -0.5618 -0.7970
vn -0.1601 -0.1797 -0.9706
vn -0.0178 0.0536 -0.9984
vn -0.1255 0.0386 -0.9913
vn -0.3707 0.1149 -0.9216
vn -0.1231 -0.7724 0.6231
vn 0.3063 -0.4809 0.8216
vn -0.0764 -0.5690 0.8188
vn -0.0697 -0.3501 0.9341
vn 0.0395 0.0301 -0.9988
vn -0.2029 0.1064 -0.9734
vn -0.1841 -0.0314 -0.9824
vn -0.1960 0.3243 -0.9254
vn 0.2384 0.1019 0.9658
vn 0.2343 0.0781 0.9690
vn 0.9657 -0.1714 0.1949
vn 0.1482 -0.9166 0.3712
vn 0.2451 -0.4264 0.8707
vn 0.1545 0.1010 -0.9828
vn 0.1598 0.0693 -0.9847
vn 0.1466 0.0196 -0.9890
vn -0.3227 -0.9461 -0.0279
vn -0.9011 -0.4168 0.1193
vn -0.4850 -0.8744 -0.0155
vn 0.0977 0.9540 -0.2836
vn -0.1079 -0.2089 0.9720
vn 0.0728 -0.0822 0.9939
vn -0.1792 -0.1128 0.9773
vn -0.1686 -0.1363 0.9762
vn -0.1460 -0.9480 -0.2829
vn -0.0021 -0.9333 -0.3590
vn -0.0212 -0.9355 -0.3526
vn -0.8282 -0.5097 -0.2332
vn 0.2140 -0.8967 -0.3875
vn 0.2072 -0.8980 -0.3881
vn -0.0996 -0.1503 -0.9836
vn -0.0569 0.1649 -0.9847
vn 0.3156 -0.8710 -0.3765
vn 0.1712 0.1581 0.9725
vn 0.1559 -0.0628 0.9858
vn 0.0982 0.9336 -0.3447
vn -0.2255 0.3535 -0.9079
vn 0.0597 0.2008 -0.9778
vn -0.2020 0.0743 0.9766
vn 0.3733 -0.8338 -0.4067
vn -0.3857 -0.9037 -0.1860
vn -0.5885 -0.4316 0.6836
vn -0.0114 0.1830 0.9830
vn 0.0299 0.1457 0.9889
vn 0.3233 -0.1354 0.9366
vn -0.2837 0.4146 0.8647
vn -0.6422 -0.6983 -0.3161
vn -0.1030 -0.1503 0.9833
vn -0.0661 -0.3422 0.9373
vn 0.6917 0.1181 -0.7124
vn -0.3715 -0.6247 0.6868
vn 0.1971 -0.7417 0.6411
vn 0.5486 -0.7395 0.3901
vn -0.2216 0.5618 -0.7970
vn -0.1601 0.1797 -0.9706
vn -0.0178 -0.0536 -0.9984
vn -0.1255 -0.0386 -0.9913
vn -0.3707 -0.1149 -0.9216
vn -0.1231 0.7724 0.6231
vn 0.3063 0.4809 0.8216
vn -0.0764 0.5690 0.8188
vn -0.0697 0.3501 0.9341
vt 0.298123 0.551568
vt 0.361415 0.059934
vt 0.234074 0.077771
vt 0.182210 0.300016
vt 0.644465 0.916037
vt 0.745424 0.746800
vt 0.632323 0.742034
vt 0.622706 0.907081
vt 0.873435 0.982077
vt 0.720545 0.945503
vt 0.724544 0.962101
vt 0.501643 0.865649
vt 0.085746 0.512813
vt 0.377750 0.963079
vt 0.182210 0.964007
vt 0.879084 0.374456
vt 0.990807 0.276906
vt 0.935444 0.141183
vt 0.690959 0.999938
vt 0.645065 0.970997
vt 0.818589 0.567513
vt 0.737096 0.429803
vt 0.757679 0.359790
vt 0.835040 0.238910
vt 0.720555 0.096588
vt 0.631236 0.282744
vt 0.889879 0.497030
vt 0.892467 0.630785
vt 0.990807 0.667331
vt 0.992395 0.137990
vt 0.994691 0.000062
vt 0.863468 0.752828
vt 0.868062 0.831847
vt 0.535024 0.026525
vt 0.332900 0.552473
vt 0.530621 0.489469
vt 0.744048 0.821255
vt 0.611390 0.605447
vt 0.636553 0.989104
vt 0.542064 0.539114
vt 0.640021 0.544410
vt 0.618225 0.659412
vt 0.694349 0.519776
vt 0.684581 0.520226
vt 0.562508 0.629502
vt 0.523880 0.401318
vt 0.523367 0.435839
vt 0.949582 0.005203
vt 0.837529 0.327230
vt 0.372342 0.506646
vt 0.510220 0.040476
vt 0.523197 0.692110
vt 0.574476 0.541127
vt 0.562509 0.697315
vt 0.564566 0.804068
vt 0.524150 0.796203
vt 0.578387 0.957556
vt 0.577142 0.824942
vt 0.634201 0.803360
vt 0.633793 0.708433
vt 0.579046 0.681629
s 1
f 3/1/1 32/2/2 15/3/3
f 14/4/4 3/1/1 15/3/3
f 13/5/5 1/6/6 10/7/7 12/8/8
f 2/9/9 1/6/6 33/10/10 32/11/11
f 5/12/12 3/13/1 8/14/13
f 8/14/13 3/1/1 9/15/14
f 4/16/15 5/17/16 7/18/17
f 15/19/18 13/5/18 12/8/19 14/20/19
f 1/6/6 31/21/20 17/22/21
f 17/22/21 29/23/22 6/24/23 11/25/24 20/26/24
f 5/17/16 4/16/15 18/27/25
f 5/17/16 18/27/25 19/28/26 16/29/27
f 8/30/28 9/31/29 7/18/17
f 16/29/27 19/28/26 24/32/30 23/33/31
f 2/34/32 3/35/1 16/36/33
f 22/37/34 23/33/31 24/32/30
f 24/32/35 19/28/36 1/6/6 22/37/35
f 1/6/6 2/9/9 22/37/37
f 2/9/32 16/29/33 23/33/38
f 1/6/6 17/22/21 21/38/39 10/7/7
f 23/33/38 22/37/40 2/9/32
f 27/39/41 25/40/42 26/41/41
f 21/42/43 17/43/44 25/44/45 27/45/43
f 17/43/44 20/46/46 26/47/46 25/44/45
f 9/31/29 28/48/47 7/18/17
f 6/24/48 4/16/15 7/18/17
f 5/17/16 8/30/28 7/18/17
f 7/18/17 28/48/47 11/25/49
f 29/23/50 4/16/51 30/49/52
f 6/24/53 29/23/50 30/49/52
f 4/16/54 6/24/54 30/49/54
f 11/25/49 6/24/48 7/18/17
f 31/21/20 18/27/55 4/16/56
f 1/6/6 19/28/36 31/21/20
f 9/15/14 3/1/1 14/4/4
f 17/22/21 31/21/20 29/23/22
f 18/27/55 31/21/20 19/28/36
f 29/23/22 31/21/20 4/16/56
f 32/11/57 33/10/57 13/5/57 15/19/57
f 33/10/10 1/6/6 13/5/5
f 32/2/2 3/50/1 2/51/32
f 16/36/33 3/35/1 5/12/12
f 34/52/58 39/53/58 42/54/58
f 34/52/59 42/54/59 43/55/59 37/56/59
f 37/56/60 43/55/60 41/57/60
f 38/58/61 40/59/61 36/60/61 35/61/61
f 40/59/62 38/58/62 41/57/62
f 37/56/63 38/58/63 35/61/63 34/52/63
f 38/58/64 37/56/64 41/57/64
f 34/52/65 35/61/65 39/53/65
f 35/61/66 36/60/66 39/53/66
f 41/57/67 43/55/67 40/59/67
f 42/54/68 39/53/68 36/60/68
f 43/55/69 42/54/69 36/60/69 40/59/69
f 46/1/70 53/3/71 65/2/72
f 14/4/73 53/3/71 46/1/70
f 52/5/74 12/8/8 10/7/7 44/6/75
f 45/9/76 65/11/77 66/10/78 44/6/75
f 48/12/79 51/14/80 46/13/70
f 51/14/80 9/15/81 46/1/70
f 47/16/82 50/18/83 48/17/84
f 53/19/85 14/20/19 12/8/19 52/5/85
f 44/6/75 55/22/86 64/21/87
f 55/22/86 20/26/24 11/25/24 49/24/88 62/23/89
f 48/17/84 56/27/90 47/16/82
f 48/17/84 54/29/91 57/28/92 56/27/90
f 51/30/93 50/18/83 9/31/29
f 54/29/91 59/33/94 60/32/95 57/28/92
f 45/34/96 54/36/97 46/35/70
f 58/37/98 60/32/95 59/33/94
f 60/32/99 58/37/99 44/6/75 57/28/100
f 44/6/75 58/37/101 45/9/76
f 45/9/96 59/33/102 54/29/97
f 44/6/75 10/7/7 21/38/39 55/22/86
f 59/33/102 45/9/96 58/37/103
f 27/39/41 26/41/41 61/40/104
f 21/42/43 27/45/43 61/44/105 55/43/106
f 55/43/106 61/44/105 26/47/46 20/46/46
f 9/31/29 50/18/83 28/48/47
f 49/24/107 50/18/83 47/16/82
f 48/17/84 50/18/83 51/30/93
f 50/18/83 11/25/49 28/48/47
f 62/23/108 63/49/109 47/16/110
f 49/24/111 63/49/109 62/23/108
f 47/16/112 63/49/112 49/24/112
f 11/25/49 50/18/83 49/24/107
f 64/21/87 47/16/113 56/27/114
f 44/6/75 64/21/87 57/28/100
f 9/15/81 14/4/73 46/1/70
f 55/22/86 62/23/89 64/21/87
f 56/27/114 57/28/100 64/21/87
f 62/23/89 47/16/113 64/21/87
f 65/11/115 53/19/115 52/5/115 66/10/115
f 66/10/78 52/5/74 44/6/75
f 65/2/72 45/51/96 46/50/70
f 54/36/97 48/12/79 46/35/70
f 67/52/116 75/54/116 72/53/116
f 67/52/117 70/56/117 76/55/117 75/54/117
f 70/56/118 74/57/118 76/55/118
f 71/58/119 68/61/119 69/60/119 73/59/119
f 73/59/120 74/57/120 71/58/120
f 70/56/121 67/52/121 68/61/121 71/58/121
f 71/58/122 74/57/122 70/56/122
f 67/52/123 72/53/123 68/61/123
f 68/61/124 72/53/124 69/60/124
f 74/57/125 73/59/125 76/55/125
f 75/54/126 69/60/126 72/53/126
f 76/55/127 73/59/127 69/60/127 75/54/127
o BouncerTurret
v -1.412411 26.431030 35.153652
v 10.666595 26.320259 25.033400
v -5.383241 4.849905 -2.228102
v 0.350794 8.423401 15.443485
v 2.393464 4.030527 -3.255060
v 2.343213 7.065283 15.556747
v -2.941903 2.941903 34.385662
v -5.168347 0.000000 34.385662
v -17.528137 0.000000 -8.630280
v -8.828886 0.000000 22.811598
v -1.412411 26.320259 25.033400
v 26.565937 0.000000 34.385662
v 8.116053 26.664597 36.081772
v 6.545358 0.000000 -10.769087
v -2.941903 9.806081 22.811598
v -10.558940 5.325075 -8.630280
v 6.586560 6.864179 22.811598
v -4.410253 14.064080 14.639169
v 6.586560 2.383173 -10.744677
v 1.323782 16.705692 28.062117
v 3.366452 12.312818 9.363570
v 3.316201 15.347575 28.175379
v 11.154699 0.000000 42.663136
v 10.550311 9.638798 41.017498
v -1.412411 -26.431030 35.153652
v 10.666595 -26.320259 25.033400
v -5.383241 -4.849905 -2.228102
v 0.350794 -8.423401 15.443485
v 2.393464 -4.030527 -3.255060
v 2.343213 -7.065283 15.556747
v -2.941903 -2.941903 34.385662
v -1.412411 -26.320259 25.033400
v 8.116053 -26.664597 36.081772
v -2.941903 -9.806081 22.811598
v -10.558940 -5.325075 -8.630280
v 6.586560 -6.864179 22.811598
v -4.410253 -14.064080 14.639169
v 6.586560 -2.383173 -10.744677
v 1.323782 -16.705692 28.062117
v 3.366452 -12.312818 9.363570
v 3.316201 -15.347575 28.175379
v 10.550311 -9.638798 41.017498
vn -0.7535 0.6402 0.1499
vn -0.7824 0.5862 0.2101
vn -0.9146 0.3774 0.1450
vn 0.1229 0.9694 -0.2123
vn 0.1081 0.9615 -0.2527
vn 0.1056 0.9418 -0.3192
vn 0.0188 0.9076 -0.4193
vn 0.6539 -0.0000 0.7566
vn 0.0700 0.2194 0.9731
vn 0.0159 -0.0000 0.9999
vn -0.7153 0.2780 0.6411
vn -0.9974 0.0711 0.0147
vn 0.2223 0.7576 0.6137
vn -0.3349 0.0890 0.9381
vn -0.8122 -0.0000 0.5834
vn -0.0993 0.1300 -0.9865
vn 0.4721 0.8772 0.0876
vn 0.2789 0.0560 -0.9587
vn 0.0163 0.1201 -0.9926
vn 0.2078 0.0743 -0.9753
vn -0.9979 0.0650 -0.0007
vn 0.4997 -0.0059 -0.8662
vn 0.9142 -0.0000 -0.4053
vn 0.9141 -0.0117 -0.4053
vn 0.3850 0.9148 -0.1222
vn 0.2172 0.9696 -0.1129
vn 0.3485 0.9299 -0.1179
vn 0.2607 0.9521 -0.1596
vn 0.1535 0.9795 -0.1304
vn 0.2907 0.9466 -0.1391
vn 0.2714 0.9548 -0.1210
vn 0.1976 0.9589 -0.2037
vn -0.7322 -0.5634 0.3827
vn -0.6489 -0.6251 0.4338
vn -0.5726 -0.6702 0.4722
vn -0.5070 -0.7021 0.4999
vn 0.9869 -0.1590 0.0283
vn -0.0098 0.9997 -0.0227
vn -0.7535 -0.6402 0.1499
vn -0.9146 -0.3774 0.1450
vn -0.7824 -0.5862 0.2101
vn 0.1229 -0.9694 -0.2123
vn 0.0188 -0.9076 -0.4193
vn 0.1056 -0.9418 -0.3192
vn 0.1081 -0.9615 -0.2527
vn 0.0700 -0.2194 0.9731
vn -0.9974 -0.0711 0.0147
vn -0.7153 -0.2780 0.6411
vn -0.3349 -0.0890 0.9381
vn 0.2223 -0.7576 0.6137
vn -0.0993 -0.1300 -0.9865
vn 0.4721 -0.8772 0.0876
vn 0.2789 -0.0560 -0.9587
vn 0.2078 -0.0743 -0.9753
vn 0.0163 -0.1201 -0.9926
vn -0.9979 -0.0650 -0.0007
vn 0.4997 0.0059 -0.8662
vn 0.9141 0.0117 -0.4053
vn 0.3850 -0.9148 -0.1222
vn 0.3485 -0.9299 -0.1179
vn 0.2172 -0.9696 -0.1129
vn 0.2607 -0.9521 -0.1596
vn 0.2907 -0.9466 -0.1391
vn 0.1535 -0.9795 -0.1304
vn 0.2714 -0.9548 -0.1210
vn 0.1976 -0.9589 -0.2037
vn -0.7322 0.5634 0.3827
vn -0.5726 0.6702 0.4722
vn -0.6489 0.6251 0.4338
vn -0.5070 0.7021 0.4999
vn 0.9869 0.1590 0.0283
vn -0.0098 -0.9997 -0.0227
vt 0.682174 0.517379
vt 0.681953 0.643972
vt 0.647291 0.643352
vt 0.655753 0.518834
vt 0.581929 0.540538
vt 0.642153 0.539350
vt 0.622767 0.580249
vt 0.598736 0.570939
vt 0.528603 0.650971
vt 0.587748 0.749006
vt 0.581379 0.774712
vt 0.670796 0.733084
vt 0.625890 0.669003
vt 0.591762 0.713764
vt 0.611628 0.713428
vt 0.682174 0.736805
vt 0.583206 0.039424
vt 0.562370 0.000450
vt 0.545491 0.039424
vt 0.597355 0.661913
vt 0.578792 0.627486
vt 0.557937 0.518433
vt 0.565135 0.517716
vt 0.632007 0.617975
vt 0.592224 0.609377
vt 0.613906 0.600464
vt 0.609899 0.601646
s 1
f 85/62/128 86/63/129 91/64/130 92/65/128
f 81/66/131 79/67/132 94/68/133 97/69/134
f 88/70/135 100/71/136 99/72/137
f 91/64/130 83/73/138 87/74/139
f 83/73/138 100/71/136 89/75/140 77/76/141
f 91/64/130 86/63/129 84/77/142 83/73/138
f 92/78/143 95/79/143 85/80/143
f 88/70/135 78/81/144 89/75/140
f 93/82/145 91/64/146 87/74/146 78/81/147
f 87/74/139 83/73/138 77/76/148
f 78/81/147 88/70/149 93/82/145
f 90/83/150 95/84/151 88/70/150
f 88/70/152 95/84/153 93/82/154
f 80/85/155 79/67/132 92/65/156 91/64/157
f 81/66/131 82/86/158 93/82/154 95/84/153
f 79/67/132 81/66/131 95/84/153 92/65/156
f 82/86/158 80/85/155 91/64/157 93/82/154
f 94/68/133 96/87/159 98/88/159 97/69/134
f 79/67/160 80/85/161 96/87/162 94/68/160
f 80/85/161 82/86/163 98/88/163 96/87/162
f 82/86/164 81/66/164 97/69/164 98/88/164
f 99/72/137 100/71/136 83/73/138 84/77/142
f 89/75/140 100/71/136 88/70/135
f 78/81/144 87/74/165 77/76/165 89/75/140
f 85/62/166 111/65/166 110/64/167 86/63/168
f 105/66/169 116/69/170 113/68/171 103/67/172
f 88/70/135 99/72/137 118/71/173
f 110/64/167 108/74/174 107/73/175
f 107/73/175 101/76/176 109/75/177 118/71/173
f 110/64/167 107/73/175 84/77/142 86/63/168
f 111/78/178 85/80/178 114/79/178
f 88/70/135 109/75/177 102/81/179
f 112/82/180 102/81/181 108/74/182 110/64/182
f 108/74/174 101/76/183 107/73/175
f 102/81/181 112/82/180 88/70/184
f 90/83/150 88/70/150 114/84/185
f 88/70/186 112/82/187 114/84/188
f 104/85/189 110/64/190 111/65/191 103/67/172
f 105/66/169 114/84/188 112/82/187 106/86/192
f 103/67/172 111/65/191 114/84/188 105/66/169
f 106/86/192 112/82/187 110/64/190 104/85/189
f 113/68/171 116/69/170 117/88/193 115/87/193
f 103/67/194 113/68/194 115/87/195 104/85/196
f 104/85/196 115/87/195 117/88/197 106/86/197
f 106/86/198 117/88/198 116/69/198 105/66/198
f 99/72/137 84/77/142 107/73/175 118/71/173
f 109/75/177 88/70/135 118/71/173
f 102/81/179 109/75/177 101/76/199 108/74/199
