# Blender 4.4.1
# www.blender.org
mtllib bouncer.mtl
o BouncerBase
v 50.491867 9.961160 -23.688236
v 65.157188 -5.881272 -31.081163
v 16.090622 0.224766 -26.721569
v -31.220989 14.317144 -51.615490
v -44.714066 -11.223703 -45.111965
v -53.009411 9.980940 -29.617020
v -70.082855 -1.531608 -24.571236
v -64.816559 -12.990015 -27.885876
v -64.991432 -11.265568 0.000000
v 42.334927 9.196621 0.000000
v -67.668068 14.083807 0.000000
v 74.871193 0.000000 0.000000
v 112.292953 -6.722333 -7.430462
v 60.069782 0.273640 0.000000
v 101.929161 -15.555951 -7.396252
v 28.094618 -3.407187 -55.196373
v -15.056572 20.867140 -25.721062
v -5.290483 14.317144 -55.986588
v 26.152681 14.317144 -64.185097
v -33.707672 16.844635 0.000000
v 17.114676 18.886953 0.000000
v 104.091171 -4.220703 -34.564064
v 53.869133 -10.466699 -50.060574
v 58.452015 14.317144 -59.113770
v -9.086766 28.233080 -32.828011
v -33.707672 20.640886 0.000000
v 17.114676 31.155270 0.000000
v -73.814415 -0.347518 0.000000
v -28.350391 16.869162 -27.109612
v -43.146095 19.668947 -43.072392
v 11.410684 20.001335 -43.645752
v 105.288857 -16.527264 -25.556345
v 114.533386 -5.922793 -23.115639
v -13.483284 16.955614 -54.209831
v -20.561483 16.073690 -24.314014
v 0.468053 22.180227 -25.886946
v 20.058901 16.955614 -54.209831
v 29.468178 14.632529 -25.156904
v -36.729485 23.661242 -33.011909
v 20.058901 20.457218 -2.076218
v 76.044640 8.424171 -17.181355
v 1.725582 34.703880 -43.741390
v 45.900707 27.011559 -29.735970
v 50.491867 9.961160 23.688236
v 65.157188 -5.881272 31.081163
v 16.090622 0.224766 26.721569
v -31.220989 14.317144 51.615490
v -44.714066 -11.223703 45.111965
v -53.009411 9.980940 29.617020
v -70.082855 -1.531608 24.571236
v -64.816559 -12.990015 27.885876
v 112.292953 -6.722333 7.430462
v 101.929161 -15.555951 7.396252
v 28.094618 -3.407187 55.196373
v -15.056572 20.867140 25.721062
v -5.290483 14.317144 55.986588
v 26.152681 14.317144 64.185097
v 104.091171 -4.220703 34.564064
v 53.869133 -10.466699 50.060574
v 58.452015 14.317144 59.113770
v -9.086766 28.233080 32.828011
v -28.350391 16.869162 27.109612
v -43.146095 19.668947 43.072392
v 11.410684 20.001335 43.645752
v 105.288857 -16.527264 25.556345
v 114.533386 -5.922793 23.115639
v -13.483284 16.955614 54.209831
v -20.561483 16.073690 24.314014
v 0.468053 22.180227 25.886946
v 20.058901 16.955614 54.209831
v 29.468178 14.632529 25.156904
v -36.729485 23.661242 33.011909
v 20.058901 20.457218 2.076218
v 76.044640 8.424171 17.181355
v 1.725582 34.703880 43.741390
v 45.900707 27.011559 29.735970
vn 0.0395 -0.9988 0.0301
vn -0.1841 -0.9824 -0.0314
vn -0.2029 -0.9734 0.1064
vn -0.1960 -0.9254 0.3243
vn 0.2384 0.9658 0.1019
vn 0.2343 0.9690 0.0781
vn 0.2288 0.9735 -0.0000
vn 0.2383 0.9712 -0.0000
vn 0.9657 0.1949 -0.1714
vn 0.2451 0.8707 -0.4264
vn 0.1482 0.3712 -0.9166
vn 0.1545 -0.9828 0.1010
vn 0.1598 -0.9847 0.0693
vn 0.1466 -0.9890 0.0196
vn -0.3227 -0.0279 -0.9461
vn -0.4850 -0.0155 -0.8744
vn -0.9011 0.1193 -0.4168
vn 0.0977 -0.2836 0.9540
vn 0.3259 -0.9454 -0.0000
vn 0.0728 0.9939 -0.0822
vn -0.1079 0.9720 -0.2089
vn -0.1686 0.9762 -0.1363
vn -0.1792 0.9773 -0.1128
vn -0.1804 0.9836 -0.0000
vn -0.1460 -0.2829 -0.9480
vn -0.0212 -0.3526 -0.9355
vn -0.0021 -0.3590 -0.9333
vn -0.8282 -0.2332 -0.5097
vn -0.8205 -0.5717 -0.0000
vn 0.2072 -0.3881 -0.8980
vn 0.2140 -0.3875 -0.8967
vn -0.0996 -0.9836 -0.1503
vn -0.0569 -0.9847 0.1649
vn 0.3156 -0.3765 -0.8710
vn 0.1712 0.9725 0.1581
vn 0.1559 0.9858 -0.0628
vn 0.0982 -0.3447 0.9336
vn -0.2255 -0.9079 0.3535
vn 0.2224 0.9749 -0.0000
vn 0.0597 -0.9778 0.2008
vn -0.2026 0.9793 -0.0000
vn -0.2020 0.9766 0.0743
vn 0.8342 -0.5515 -0.0000
vn -0.3857 -0.1860 -0.9037
vn 0.3733 -0.4067 -0.8338
vn -0.9973 0.0733 -0.0000
vn -0.9931 -0.1174 -0.0000
vn -0.5885 0.6836 -0.4316
vn -0.8352 0.5499 -0.0000
vn -0.0114 0.9830 0.1830
vn 0.3233 0.9366 -0.1354
vn 0.0299 0.9889 0.1457
vn -0.2837 0.8647 0.4146
vn -0.6422 -0.3161 -0.6983
vn -0.0661 0.9373 -0.3422
vn -0.1030 0.9833 -0.1503
vn 0.6917 -0.7124 0.1181
vn -0.3715 0.6868 -0.6247
vn 0.1971 0.6411 -0.7417
vn 0.5486 0.3901 -0.7395
vn -0.2216 -0.7970 0.5618
vn -0.1601 -0.9706 0.1797
vn -0.0178 -0.9984 -0.0536
vn -0.1255 -0.9913 -0.0386
vn -0.3707 -0.9216 -0.1149
vn -0.1231 0.6231 0.7724
vn 0.3063 0.8216 0.4809
vn -0.0764 0.8188 0.5690
vn -0.0697 0.9341 0.3501
vn 0.0395 -0.9988 -0.0301
vn -0.2029 -0.9734 -0.1064
vn -0.1841 -0.9824 0.0314
vn -0.1960 -0.9254 -0.3243
vn 0.2384 0.9658 -0.1019
vn 0.2343 0.9690 -0.0781
vn 0.9657 0.1949 0.1714
vn 0.1482 0.3712 0.9166
vn 0.2451 0.8707 0.4264
vn 0.1545 -0.9828 -0.1010
vn 0.1598 -0.9847 -0.0693
vn 0.1466 -0.9890 -0.0196
vn -0.3227 -0.0279 0.9461
vn -0.9011 0.1193 0.4168
vn -0.4850 -0.0155 0.8744
vn 0.0977 -0.2836 -0.9540
vn -0.1079 0.9720 0.2089
vn 0.0728 0.9939 0.0822
vn -0.1792 0.9773 0.1128
vn -0.1686 0.9762 0.1363
vn -0.1460 -0.2829 0.9480
vn -0.0021 -0.3590 0.9333
vn -0.0212 -0.3526 0.9355
vn -0.8282 -0.2332 0.5097
vn 0.2140 -0.3875 0.8967
vn 0.2072 -0.3881 0.8980
vn -0.0996 -0.9836 0.1503
vn -0.0569 -0.9847 -0.1649
vn 0.3156 -0.3765 0.8710
vn 0.1712 0.9725 -0.1581
vn 0.1559 0.9858 0.0628
vn 0.0982 -0.3447 -0.9336
vn -0.2255 -0.9079 -0.3535
vn 0.0597 -0.9778 -0.2008
vn -0.2020 0.9766 -0.0743
vn 0.3733 -0.4067 0.8338
vn -0.3857 -0.1860 0.9037
vn -0.5885 0.6836 0.4316
vn -0.0114 0.9830 -0.1830
vn 0.0299 0.9889 -0.1457
vn 0.3233 0.9366 0.1354
vn -0.2837 0.8647 -0.4146
vn -0.6422 -0.3161 0.6983
vn -0.1030 0.9833 0.1503
vn -0.0661 0.9373 0.3422
vn 0.6917 -0.7124 -0.1181
vn -0.3715 0.6868 0.6247
vn 0.1971 0.6411 0.7417
vn 0.5486 0.3901 0.7395
vn -0.2216 -0.7970 -0.5618
vn -0.1601 -0.9706 -0.1797
vn -0.0178 -0.9984 0.0536
vn -0.1255 -0.9913 0.0386
vn -0.3707 -0.9216 0.1149
vn -0.1231 0.6231 -0.7724
vn 0.3063 0.8216 -0.4809
vn -0.0764 0.8188 -0.5690
vn -0.0697 0.9341 -0.3501
vt 0.298123 0.551568
vt 0.361415 0.059934
vt 0.234074 0.077771
vt 0.182210 0.300016
vt 0.644465 0.916037
vt 0.745424 0.746800
vt 0.632323 0.742034
vt 0.622706 0.907081
vt 0.873435 0.982077
vt 0.720545 0.945503
vt 0.724544 0.962101
vt 0.501643 0.865649
vt 0.085746 0.512813
vt 0.377750 0.963079
vt 0.182210 0.964007
vt 0.879084 0.374456
vt 0.990807 0.276906
vt 0.935444 0.141183
vt 0.690959 0.999938
vt 0.645065 0.970997
vt 0.818589 0.567513
vt 0.737096 0.429803
vt 0.757679 0.359790
vt 0.835040 0.238910
vt 0.720555 0.096588
vt 0.631236 0.282744
vt 0.889879 0.497030
vt 0.892467 0.630785
vt 0.990807 0.667331
vt 0.992395 0.137990
vt 0.994691 0.000062
vt 0.863468 0.752828
vt 0.868062 0.831847
vt 0.535024 0.026525
vt 0.332900 0.552473
vt 0.530621 0.489469
vt 0.744048 0.821255
vt 0.611390 0.605447
vt 0.636553 0.989104
vt 0.542064 0.539114
vt 0.640021 0.544410
vt 0.618225 0.659412
vt 0.694349 0.519776
vt 0.684581 0.520226
vt 0.562508 0.629502
vt 0.523880 0.401318
vt 0.523367 0.435839
vt 0.949582 0.005203
vt 0.837529 0.327230
vt 0.372342 0.506646
vt 0.510220 0.040476
vt 0.523197 0.692110
vt 0.574476 0.541127
vt 0.562509 0.697315
vt 0.564566 0.804068
vt 0.524150 0.796203
vt 0.578387 0.957556
vt 0.577142 0.824942
vt 0.634201 0.803360
vt 0.633793 0.708433
vt 0.579046 0.681629
s 1
usemtl Material
f 3/1/1 32/2/2 15/3/3
f 14/4/4 3/1/1 15/3/3
f 13/5/5 1/6/6 10/7/7 12/8/8
f 2/9/9 1/6/6 33/10/10 32/11/11
f 5/12/12 3/13/1 8/14/13
f 8/14/13 3/1/1 9/15/14
f 4/16/15 5/17/16 7/18/17
f 15/19/18 13/5/18 12/8/19 14/20/19
f 1/6/6 31/21/20 17/22/21
f 17/22/21 29/23/22 6/24/23 11/25/24 20/26/24
f 5/17/16 4/16/15 18/27/25
f 5/17/16 18/27/25 19/28/26 16/29/27
f 8/30/28 9/31/29 7/18/17
f 16/29/27 19/28/26 24/32/30 23/33/31
f 2/34/32 3/35/1 16/36/33
f 22/37/34 23/33/31 24/32/30
f 24/32/35 19/28/36 1/6/6 22/37/35
f 1/6/6 2/9/9 22/37/37
f 2/9/32 16/29/33 23/33/38
f 1/6/6 17/22/21 21/38/39 10/7/7
f 23/33/38 22/37/40 2/9/32
f 27/39/41 25/40/42 26/41/41
f 21/42/43 17/43/44 25/44/45 27/45/43
f 17/43/44 20/46/46 26/47/46 25/44/45
f 9/31/29 28/48/47 7/18/17
f 6/24/48 4/16/15 7/18/17
f 5/17/16 8/30/28 7/18/17
f 7/18/17 28/48/47 11/25/49
f 29/23/50 4/16/51 30/49/52
f 6/24/53 29/23/50 30/49/52
f 4/16/54 6/24/54 30/49/54
f 11/25/49 6/24/48 7/18/17
f 31/21/20 18/27/55 4/16/56
f 1/6/6 19/28/36 31/21/20
f 9/15/14 3/1/1 14/4/4
f 17/22/21 31/21/20 29/23/22
f 18/27/55 31/21/20 19/28/36
f 29/23/22 31/21/20 4/16/56
f 32/11/57 33/10/57 13/5/57 15/19/57
f 33/10/10 1/6/6 13/5/5
f 32/2/2 3/50/1 2/51/32
f 16/36/33 3/35/1 5/12/12
f 34/52/58 39/53/58 42/54/58
f 34/52/59 42/54/59 43/55/59 37/56/59
f 37/56/60 43/55/60 41/57/60
f 38/58/61 40/59/61 36/60/61 35/61/61
f 40/59/62 38/58/62 41/57/62
f 37/56/63 38/58/63 35/61/63 34/52/63
f 38/58/64 37/56/64 41/57/64
f 34/52/65 35/61/65 39/53/65
f 35/61/66 36/60/66 39/53/66
f 41/57/67 43/55/67 40/59/67
f 42/54/68 39/53/68 36/60/68
f 43/55/69 42/54/69 36/60/69 40/59/69
f 46/1/70 53/3/71 65/2/72
f 14/4/73 53/3/71 46/1/70
f 52/5/74 12/8/8 10/7/7 44/6/75
f 45/9/76 65/11/77 66/10/78 44/6/75
f 48/12/79 51/14/80 46/13/70
f 51/14/80 9/15/81 46/1/70
f 47/16/82 50/18/83 48/17/84
f 53/19/85 14/20/19 12/8/19 52/5/85
f 44/6/75 55/22/86 64/21/87
f 55/22/86 20/26/24 11/25/24 49/24/88 62/23/89
f 48/17/84 56/27/90 47/16/82
f 48/17/84 54/29/91 57/28/92 56/27/90
f 51/30/93 50/18/83 9/31/29
f 54/29/91 59/33/94 60/32/95 57/28/92
f 45/34/96 54/36/97 46/35/70
f 58/37/98 60/32/95 59/33/94
f 60/32/99 58/37/99 44/6/75 57/28/100
f 44/6/75 58/37/101 45/9/76
f 45/9/96 59/33/102 54/29/97
f 44/6/75 10/7/7 21/38/39 55/22/86
f 59/33/102 45/9/96 58/37/103
f 27/39/41 26/41/41 61/40/104
f 21/42/43 27/45/43 61/44/105 55/43/106
f 55/43/106 61/44/105 26/47/46 20/46/46
f 9/31/29 50/18/83 28/48/47
f 49/24/107 50/18/83 47/16/82
f 48/17/84 50/18/83 51/30/93
f 50/18/83 11/25/49 28/48/47
f 62/23/108 63/49/109 47/16/110
f 49/24/111 63/49/109 62/23/108
f 47/16/112 63/49/112 49/24/112
f 11/25/49 50/18/83 49/24/107
f 64/21/87 47/16/113 56/27/114
f 44/6/75 64/21/87 57/28/100
f 9/15/81 14/4/73 46/1/70
f 55/22/86 62/23/89 64/21/87
f 56/27/114 57/28/100 64/21/87
f 62/23/89 47/16/113 64/21/87
f 65/11/115 53/19/115 52/5/115 66/10/115
f 66/10/78 52/5/74 44/6/75
f 65/2/72 45/51/96 46/50/70
f 54/36/97 48/12/79 46/35/70
f 67/52/116 75/54/116 72/53/116
f 67/52/117 70/56/117 76/55/117 75/54/117
f 70/56/118 74/57/118 76/55/118
f 71/58/119 68/61/119 69/60/119 73/59/119
f 73/59/120 74/57/120 71/58/120
f 70/56/121 67/52/121 68/61/121 71/58/121
f 71/58/122 74/57/122 70/56/122
f 67/52/123 72/53/123 68/61/123
f 68/61/124 72/53/124 69/60/124
f 74/57/125 73/59/125 76/55/125
f 75/54/126 69/60/126 72/53/126
f 76/55/127 73/59/127 69/60/127 75/54/127
o BouncerTurret
v -1.412411 42.554764 -27.091324
v 10.666595 19.856937 -26.320259
v -5.383241 -2.228102 -4.849905
v 0.350794 15.443485 -8.423401
v 2.393464 -3.255060 -4.030527
v 2.343213 15.556747 -7.065283
v -2.941903 34.385662 -2.941903
v -5.168347 34.385662 0.000000
v -17.528137 -8.630280 0.000000
v -8.828886 22.811598 0.000000
v -1.412411 19.856937 -26.320259
v 26.565937 34.385662 0.000000
v 8.116053 43.482883 -27.324890
v 0.499687 36.163513 -46.566479
v 10.028151 22.508816 -44.207458
v 0.499687 22.508816 -44.207458
v 10.028151 36.163513 -46.566479
v -41.034557 19.856937 -26.320259
v -39.122456 36.163513 -46.566479
v -39.122456 22.508816 -44.207458
v 79.358536 19.856937 -18.488716
v 76.807999 42.096725 -17.472506
v 53.203560 22.508816 -44.207458
v 53.203560 36.163513 -46.566479
v -48.494236 28.378757 -38.671753
v 6.545358 -10.769087 0.000000
v -54.364635 29.058571 -40.810734
v -41.034557 41.455261 -31.287937
v -2.941903 22.811598 -9.806081
v -10.558940 -8.630280 -5.325075
v 6.586560 22.811598 -6.864179
v -4.410253 14.639169 -14.064080
v 6.586560 -10.744677 -2.383173
v 1.323782 28.062117 -16.705692
v 3.366452 9.363570 -12.312818
v 3.316201 28.175379 -15.347575
v 11.154699 42.663136 0.000000
v 10.550311 41.017498 -9.638798
v -0.456362 21.182877 -35.263859
v 10.347373 17.403587 -35.263859
v -40.078506 21.182877 -35.263859
v 66.281052 17.403587 -35.263859
v -0.456362 39.359138 -36.828903
v 9.072102 44.737137 -36.945683
v 65.005775 44.044052 -35.935265
v -40.078506 38.809383 -38.927208
v -1.412411 42.554764 27.091324
v 10.666595 19.856937 26.320259
v -5.383241 -2.228102 4.849905
v 0.350794 15.443485 8.423401
v 2.393464 -3.255060 4.030527
v 2.343213 15.556747 7.065283
v -2.941903 34.385662 2.941903
v -1.412411 19.856937 26.320259
v 8.116053 43.482883 27.324890
v 0.499687 36.163513 46.566479
v 10.028151 22.508816 44.207458
v 0.499687 22.508816 44.207458
v 10.028151 36.163513 46.566479
v -41.034557 19.856937 26.320259
v -39.122456 36.163513 46.566479
v -39.122456 22.508816 44.207458
v 79.358536 19.856937 18.488716
v 76.807999 42.096725 17.472506
v 53.203560 22.508816 44.207458
v 53.203560 36.163513 46.566479
v -48.494236 28.378757 38.671753
v -54.364635 29.058571 40.810734
v -41.034557 41.455261 31.287937
v -2.941903 22.811598 9.806081
v -10.558940 -8.630280 5.325075
v 6.586560 22.811598 6.864179
v -4.410253 14.639169 14.064080
v 6.586560 -10.744677 2.383173
v 1.323782 28.062117 16.705692
v 3.366452 9.363570 12.312818
v 3.316201 28.175379 15.347575
v 10.550311 41.017498 9.638798
v -0.456362 21.182877 35.263859
v 10.347373 17.403587 35.263859
v -40.078506 21.182877 35.263859
v 66.281052 17.403587 35.263859
v -0.456362 39.359138 36.828903
v 9.072102 44.737137 36.945683
v 65.005775 44.044052 35.935265
v -40.078506 38.809383 38.927208
vn -0.7535 0.1499 -0.6402
vn -0.7824 0.2101 -0.5862
vn -0.9193 0.1438 -0.3664
vn 0.1229 -0.2123 -0.9694
vn 0.1081 -0.2527 -0.9615
vn 0.1056 -0.3192 -0.9418
vn 0.0188 -0.4193 -0.9076
vn 0.4135 0.9105 -0.0000
vn 0.0344 0.9986 0.0409
vn 0.0159 0.9999 -0.0000
vn -0.7457 0.6266 -0.2265
vn -0.9971 0.0146 -0.0743
vn -0.0497 -0.6053 -0.7944
vn -0.0000 -0.1702 -0.9854
vn -0.1435 0.9866 0.0778
vn -0.1879 0.9804 -0.0593
vn -0.8122 0.5834 -0.0000
vn -0.0993 -0.9865 -0.1300
vn -0.0872 -0.9844 -0.1525
vn -0.0847 -0.9861 -0.1427
vn -0.0926 -0.9635 -0.2513
vn -0.1239 -0.1689 -0.9778
vn -0.1172 -0.1691 -0.9786
vn 0.8371 0.0673 -0.5428
vn 0.2296 -0.9527 0.1991
vn -0.0216 -0.9871 0.1588
vn -0.0577 -0.9981 0.0212
vn 0.0059 -0.9882 0.1529
vn -0.1311 0.9459 -0.2967
vn 0.0069 0.9938 0.1106
vn 0.0089 0.9945 -0.1040
vn -0.1375 0.9332 -0.3320
vn -0.1066 0.8031 -0.5863
vn -0.1252 0.8930 -0.4323
vn -0.1594 -0.9739 -0.1614
vn -0.4216 -0.8894 -0.1769
vn -0.2160 -0.9622 -0.1657
vn -0.4996 0.7973 -0.3387
vn -0.1961 0.9207 -0.3374
vn -0.2569 0.9045 -0.3404
vn -0.0542 0.1283 0.9903
vn -0.3211 0.1521 0.9347
vn -0.3071 0.1511 0.9396
vn 0.0950 0.9955 0.0060
vn -0.9980 -0.0022 -0.0639
vn 0.4301 -0.8748 0.2230
vn -0.0000 -0.6568 -0.7541
vn -0.0098 -0.9993 0.0363
vn -0.1278 -0.0145 0.9917
vn 0.9142 -0.4053 -0.0000
vn 0.9141 -0.4053 0.0117
vn 0.1597 0.0633 -0.9851
vn 0.1051 -0.8512 0.5143
vn 0.1369 -0.9905 -0.0092
vn 0.1323 -0.9822 0.1335
vn 0.0633 0.1699 0.9834
vn 0.3850 -0.1222 -0.9148
vn 0.2172 -0.1129 -0.9696
vn 0.3485 -0.1179 -0.9299
vn -0.2232 0.9140 -0.3388
vn -0.6709 0.1662 0.7227
vn -0.2810 -0.1634 -0.9457
vn 0.2607 -0.1596 -0.9521
vn 0.1535 -0.1304 -0.9795
vn 0.2907 -0.1391 -0.9466
vn 0.2714 -0.1210 -0.9548
vn 0.1976 -0.2037 -0.9589
vn -0.7322 0.3827 0.5634
vn -0.6489 0.4338 0.6251
vn -0.5726 0.4722 0.6702
vn -0.5070 0.4999 0.7021
vn 0.9869 0.0283 0.1590
vn -0.0122 -0.9810 0.1935
vn -0.1913 -0.9678 -0.1639
vn 0.0119 0.7729 -0.6344
vn 0.1387 -0.9717 -0.1912
vn -0.7535 0.1499 0.6402
vn -0.9193 0.1438 0.3664
vn -0.7824 0.2101 0.5862
vn 0.1229 -0.2123 0.9694
vn 0.0188 -0.4193 0.9076
vn 0.1056 -0.3192 0.9418
vn 0.1081 -0.2527 0.9615
vn 0.0344 0.9986 -0.0409
vn -0.9971 0.0146 0.0743
vn -0.7457 0.6266 0.2265
vn -0.0497 -0.6053 0.7944
vn -0.0000 -0.1702 0.9854
vn -0.1879 0.9804 0.0593
vn -0.1435 0.9866 -0.0778
vn -0.0993 -0.9865 0.1300
vn -0.0872 -0.9844 0.1525
vn -0.0926 -0.9635 0.2513
vn -0.0847 -0.9861 0.1427
vn -0.1172 -0.1691 0.9786
vn -0.1239 -0.1689 0.9778
vn 0.8371 0.0673 0.5428
vn 0.2296 -0.9527 -0.1991
vn 0.0059 -0.9882 -0.1529
vn -0.0577 -0.9981 -0.0212
vn -0.0216 -0.9871 -0.1588
vn -0.1311 0.9459 0.2967
vn 0.0089 0.9945 0.1040
vn 0.0069 0.9938 -0.1106
vn -0.1375 0.9332 0.3320
vn -0.1252 0.8930 0.4323
vn -0.1066 0.8031 0.5863
vn -0.1594 -0.9739 0.1614
vn -0.2160 -0.9622 0.1657
vn -0.4216 -0.8894 0.1769
vn -0.4996 0.7973 0.3387
vn -0.2569 0.9045 0.3404
vn -0.1961 0.9207 0.3374
vn -0.0542 0.1283 -0.9903
vn -0.3071 0.1511 -0.9396
vn -0.3211 0.1521 -0.9347
vn 0.0950 0.9955 -0.0060
vn -0.9980 -0.0022 0.0639
vn 0.4301 -0.8748 -0.2230
vn -0.0098 -0.9993 -0.0363
vn -0.0000 -0.6568 0.7541
vn -0.1278 -0.0145 -0.9917
vn 0.9141 -0.4053 -0.0117
vn 0.1597 0.0633 0.9851
vn 0.1051 -0.8512 -0.5143
vn 0.1323 -0.9822 -0.1335
vn 0.1369 -0.9905 0.0092
vn 0.0633 0.1699 -0.9834
vn 0.3850 -0.1222 0.9148
vn 0.3485 -0.1179 0.9299
vn 0.2172 -0.1129 0.9696
vn -0.2232 0.9140 0.3388
vn -0.6709 0.1662 -0.7227
vn -0.2810 -0.1634 0.9457
vn 0.2607 -0.1596 0.9521
vn 0.2907 -0.1391 0.9466
vn 0.1535 -0.1304 0.9795
vn 0.2714 -0.1210 0.9548
vn 0.1976 -0.2037 0.9589
vn -0.7322 0.3827 -0.5634
vn -0.5726 0.4722 -0.6702
vn -0.6489 0.4338 -0.6251
vn -0.5070 0.4999 -0.7021
vn 0.9869 0.0283 -0.1590
vn -0.0122 -0.9810 -0.1935
vn -0.1913 -0.9678 0.1639
vn 0.0119 0.7729 0.6344
vn 0.1387 -0.9717 0.1912
vt 0.682174 0.517379
vt 0.681953 0.643972
vt 0.647291 0.643352
vt 0.655753 0.518834
vt 0.581929 0.540538
vt 0.642153 0.539350
vt 0.622767 0.580249
vt 0.598736 0.570939
vt 0.528603 0.650971
vt 0.587748 0.749006
vt 0.581379 0.774712
vt 0.670796 0.733084
vt 0.625890 0.669003
vt 0.616081 0.531024
vt 0.616081 0.589029
vt 0.586892 0.589029
vt 0.586892 0.531024
vt 0.591762 0.713764
vt 0.611628 0.713428
vt 0.682174 0.736805
vt 0.583206 0.039424
vt 0.562370 0.000450
vt 0.545491 0.039424
vt 0.635279 0.529081
vt 0.636352 0.594849
vt 0.616081 0.830229
vt 0.586892 0.830229
vt 0.597355 0.661913
vt 0.578792 0.627486
vt 0.565121 0.536844
vt 0.551574 0.542664
vt 0.542958 0.124501
vt 0.563565 0.196347
vt 0.564974 0.594849
vt 0.649831 0.841869
vt 0.604535 0.923016
vt 0.636352 0.836049
vt 0.555117 0.841869
vt 0.570104 0.836049
vt 0.529025 0.600668
vt 0.550577 0.600668
vt 0.529025 0.841869
vt 0.649831 0.600668
vt 0.836215 0.656051
vt 0.913231 0.652196
vt 0.990247 0.648342
vt 0.951040 0.702613
vt 0.616081 0.268193
vt 0.635279 0.188584
vt 0.529025 0.527137
vt 0.534728 0.108975
vt 0.586892 0.268193
vt 0.557937 0.518433
vt 0.565135 0.517716
vt 0.846596 0.780616
vt 0.995237 0.788260
vt 0.920916 0.784438
vt 0.632007 0.617975
vt 0.592224 0.609377
vt 0.613906 0.600464
vt 0.609899 0.601646
vt 0.649831 0.527137
vt 0.655534 0.108975
s 1
usemtl Material
f 85/62/128 86/63/129 105/64/130 106/65/128
f 81/66/131 79/67/132 108/68/133 111/69/134
f 88/70/135 114/71/136 113/72/137
f 105/64/130 83/73/138 87/74/139
f 91/75/140 92/76/141 90/77/141 93/78/141
f 83/73/138 114/71/136 89/79/142 77/80/143
f 105/64/130 86/63/129 84/81/144 83/73/138
f 106/82/145 109/83/145 85/84/145
f 116/85/146 115/86/147 92/76/148 91/75/140
f 90/77/141 92/76/141 96/87/149 95/88/150
f 88/70/151 78/89/151 89/79/151
f 107/90/152 105/64/153 87/74/154 78/89/155
f 120/91/156 89/92/142 98/93/157 121/94/158
f 119/95/159 120/91/156 93/78/160 90/77/161
f 94/96/162 103/97/163 117/98/164
f 103/97/165 104/99/166 122/100/167
f 87/101/168 77/102/168 104/99/169 94/103/170
f 115/86/147 87/104/154 94/96/162 117/98/164
f 97/105/171 118/106/171 99/107/171 101/108/171
f 87/74/139 83/73/138 77/80/172
f 78/89/155 88/70/173 107/90/152
f 116/85/146 91/75/140 99/109/174 118/110/175
f 89/92/176 78/111/176 97/112/176 98/93/176
f 91/75/140 93/78/141 100/113/141 99/109/174
f 102/114/177 109/115/178 88/70/177
f 98/116/179 97/105/179 101/108/179
f 100/117/180 121/118/181 101/108/182
f 99/107/183 100/117/183 101/108/183
f 88/70/184 109/115/185 107/90/186
f 119/95/159 90/77/161 95/88/187 122/100/167
f 104/99/169 103/97/188 94/103/170
f 96/87/149 103/97/189 95/88/150
f 80/119/190 79/67/132 106/65/191 105/64/192
f 81/66/131 82/120/193 107/90/186 109/115/185
f 79/67/132 81/66/131 109/115/185 106/65/191
f 82/120/193 80/119/190 105/64/192 107/90/186
f 108/68/133 110/121/194 112/122/194 111/69/134
f 79/67/195 80/119/196 110/121/197 108/68/195
f 80/119/196 82/120/198 112/122/198 110/121/197
f 82/120/199 81/66/199 111/69/199 112/122/199
f 113/72/137 114/71/136 83/73/138 84/81/144
f 89/79/142 114/71/136 88/70/135
f 78/123/155 116/85/146 118/110/175 97/124/200
f 92/76/148 115/86/147 117/98/164 96/87/201
f 78/123/155 87/104/154 115/86/147 116/85/146
f 77/102/143 119/95/159 122/100/167 104/99/166
f 77/102/143 89/92/142 120/91/156 119/95/159
f 93/78/160 120/91/156 121/94/158 100/113/202
f 122/100/167 95/88/187 103/97/165
f 117/98/164 103/97/163 96/87/201
f 101/108/182 121/118/181 98/116/203
f 85/62/204 147/65/204 146/64/205 86/63/206
f 127/66/207 152/69/208 149/68/209 125/67/210
f 88/70/135 113/72/137 154/71/211
f 146/64/205 130/74/212 129/73/213
f 133/75/214 135/78/215 132/77/215 134/76/215
f 129/73/213 123/80/216 131/79/217 154/71/211
f 146/64/205 129/73/213 84/81/144 86/63/206
f 147/82/218 85/84/218 150/83/218
f 156/85/219 133/75/214 134/76/220 155/86/221
f 132/77/215 137/88/222 138/87/223 134/76/215
f 88/70/224 131/79/224 124/89/224
f 148/90/225 124/89/226 130/74/227 146/64/228
f 160/91/229 161/94/230 140/93/231 131/92/217
f 159/95/232 132/77/233 135/78/234 160/91/229
f 136/96/235 157/98/236 144/97/237
f 144/97/238 162/100/239 145/99/240
f 130/101/241 136/103/242 145/99/243 123/102/241
f 155/86/221 157/98/236 136/96/235 130/104/227
f 139/105/244 143/108/244 141/107/244 158/106/244
f 130/74/212 123/80/245 129/73/213
f 124/89/226 148/90/225 88/70/246
f 156/85/219 158/110/247 141/109/248 133/75/214
f 131/92/249 140/93/249 139/112/249 124/111/249
f 133/75/214 141/109/248 142/113/215 135/78/215
f 102/114/177 88/70/177 150/115/250
f 140/116/251 143/108/251 139/105/251
f 142/117/252 143/108/253 161/118/254
f 141/107/255 143/108/255 142/117/255
f 88/70/256 148/90/257 150/115/258
f 159/95/232 162/100/239 137/88/259 132/77/233
f 145/99/243 136/103/242 144/97/260
f 138/87/223 137/88/222 144/97/261
f 126/119/262 146/64/263 147/65/264 125/67/210
f 127/66/207 150/115/258 148/90/257 128/120/265
f 125/67/210 147/65/264 150/115/258 127/66/207
f 128/120/265 148/90/257 146/64/263 126/119/262
f 149/68/209 152/69/208 153/122/266 151/121/266
f 125/67/267 149/68/267 151/121/268 126/119/269
f 126/119/269 151/121/268 153/122/270 128/120/270
f 128/120/271 153/122/271 152/69/271 127/66/271
f 113/72/137 84/81/144 129/73/213 154/71/211
f 131/79/217 88/70/135 154/71/211
f 124/123/226 139/124/272 158/110/247 156/85/219
f 134/76/220 138/87/273 157/98/236 155/86/221
f 124/123/226 156/85/219 155/86/221 130/104/227
f 123/102/216 145/99/240 162/100/239 159/95/232
f 123/102/216 159/95/232 160/91/229 131/92/217
f 135/78/234 142/113/274 161/94/230 160/91/229
f 162/100/239 144/97/238 137/88/259
f 157/98/236 138/87/273 144/97/237
f 143/108/253 140/116/275 161/118/254
