# Blender 4.4.1
# www.blender.org
mtllib bouncer.mtl
o BouncerBase
v 60.737614 14.592367 -29.201038
v 65.157188 -5.881272 -31.081163
v 12.690649 8.551319 -16.530254
v -31.220989 9.635463 -51.615490
v -44.714066 -11.223703 -45.111965
v -53.009411 9.980940 -29.617020
v -70.082855 -1.531608 -24.571236
v -64.816559 -12.990015 -27.885876
v -64.991432 -11.265568 0.000000
v 99.247177 5.329952 -15.818872
v 42.334927 9.196621 0.000000
v -67.668068 14.083807 0.000000
v 74.871193 0.000000 0.000000
v 112.292953 -6.722333 -7.430462
v 60.069782 0.273640 0.000000
v 101.929161 -15.555951 -7.396252
v 28.094618 -3.407187 -55.196373
v -15.056572 20.867140 -25.721062
v -20.965714 3.331017 -59.341705
v 26.152681 6.304685 -64.673187
v -33.707672 16.844635 0.000000
v 17.114676 18.886953 0.000000
v 104.091171 -4.220703 -34.564064
v 52.263580 10.095865 -54.796162
v 53.869133 -10.466699 -50.060574
v 58.452015 0.239626 -59.113770
v -9.086766 28.233080 -32.828011
v -33.707672 20.640886 0.000000
v 17.114676 31.155270 0.000000
v -73.814415 -0.347518 0.000000
v -28.350391 16.869162 -27.109612
v -52.567448 19.668947 -44.646374
v -0.123454 11.168585 -57.815441
v 13.655451 17.066223 -71.304512
v 11.882666 14.135072 -44.420624
v 10.938701 13.151332 -35.717205
v 105.288857 -16.527264 -25.556345
v 114.533386 -5.922793 -23.115639
v 19.490597 -8.101786 -36.912888
v 60.737614 14.592367 29.201038
v 65.157188 -5.881272 31.081163
v 12.690649 8.551319 16.530254
v -31.220989 9.635463 51.615490
v -44.714066 -11.223703 45.111965
v -53.009411 9.980940 29.617020
v -70.082855 -1.531608 24.571236
v -64.816559 -12.990015 27.885876
v 99.247177 5.329952 15.818872
v 112.292953 -6.722333 7.430462
v 101.929161 -15.555951 7.396252
v 28.094618 -3.407187 55.196373
v -15.056572 20.867140 25.721062
v -20.965714 3.331017 59.341705
v 26.152681 6.304685 64.673187
v 104.091171 -4.220703 34.564064
v 52.263580 10.095865 54.796162
v 53.869133 -10.466699 50.060574
v 58.452015 0.239626 59.113770
v -9.086766 28.233080 32.828011
v -28.350391 16.869162 27.109612
v -52.567448 19.668947 44.646374
v -0.123454 11.168585 57.815441
v 13.655451 17.066223 71.304512
v 11.882666 14.135072 44.420624
v 10.938701 13.151332 35.717205
v 105.288857 -16.527264 25.556345
v 114.533386 -5.922793 23.115639
v 19.490597 -8.101786 36.912888
vn 0.0437 -0.9987 -0.0268
vn -0.2608 -0.9654 0.0062
vn -0.2655 -0.9626 0.0532
vn -0.2446 -0.9421 0.2294
vn 0.1793 0.9838 -0.0048
vn 0.3807 0.9208 0.0845
vn 0.5683 0.8195 -0.0732
vn 0.4900 0.7999 0.3466
vn 0.1853 0.9827 -0.0000
vn 0.3003 0.9538 -0.0000
vn 0.8728 0.1842 -0.4521
vn 0.9608 0.1779 -0.2125
vn 0.1584 0.1118 -0.9810
vn 0.0973 -0.9255 0.3660
vn 0.0529 -0.9835 0.1728
vn 0.2019 -0.9581 0.2031
vn 0.2379 -0.9702 -0.0452
vn -0.5135 0.2667 -0.8156
vn -0.5375 -0.0300 -0.8428
vn -0.8986 0.1218 -0.4216
vn 0.0977 -0.2836 0.9540
vn 0.3259 -0.9454 -0.0000
vn -0.0327 0.9649 -0.2607
vn -0.1036 0.9714 -0.2139
vn -0.0122 0.9193 -0.3935
vn -0.1792 0.9773 -0.1128
vn -0.1804 0.9836 -0.0000
vn -0.2229 -0.0366 -0.9742
vn -0.1361 0.5254 -0.8399
vn -0.0367 -0.6069 -0.7939
vn -0.0226 -0.6765 -0.7361
vn -0.8282 -0.2332 -0.5097
vn -0.8205 -0.5717 -0.0000
vn 0.1390 -0.6877 -0.7126
vn 0.1295 -0.6871 -0.7149
vn -0.1233 -0.9814 0.1472
vn 0.0166 -0.9917 -0.1273
vn 0.2909 -0.6873 -0.6656
vn 0.3881 0.8253 -0.4103
vn 0.2273 0.8461 -0.4822
vn 0.0683 0.9338 -0.3512
vn 0.3093 0.7105 -0.6321
vn 0.0919 -0.0714 0.9932
vn -0.2255 -0.9079 0.3535
vn 0.1739 0.9848 -0.0000
vn 0.0597 -0.9778 0.2008
vn -0.2026 0.9793 -0.0000
vn -0.2020 0.9766 0.0743
vn 0.8342 -0.5515 -0.0000
vn -0.3857 -0.1860 -0.9037
vn 0.3733 -0.4067 -0.8338
vn -0.9973 0.0733 -0.0000
vn -0.9931 -0.1174 -0.0000
vn -0.5780 0.6296 -0.5191
vn -0.8352 0.5499 -0.0000
vn 0.0856 0.9955 0.0407
vn 0.3228 0.8968 -0.3025
vn 0.0147 0.9904 0.1378
vn -0.2788 0.8109 0.5145
vn -0.4966 -0.7228 -0.4805
vn -0.2963 -0.7263 -0.6202
vn -0.0401 0.9985 -0.0375
vn -0.0782 0.9859 -0.1483
vn -0.0131 0.9772 -0.2120
vn -0.3238 0.9426 0.0814
vn 0.1066 0.9877 0.1147
vn 0.2794 0.9524 0.1223
vn 0.6083 0.7837 0.1256
vn 0.6917 -0.7124 0.1181
vn 0.0437 -0.9987 0.0268
vn -0.2655 -0.9626 -0.0532
vn -0.2608 -0.9654 -0.0062
vn -0.2446 -0.9421 -0.2294
vn 0.1793 0.9838 0.0048
vn 0.5683 0.8195 0.0732
vn 0.3807 0.9208 -0.0845
vn 0.4900 0.7999 -0.3466
vn 0.8728 0.1842 0.4521
vn 0.1584 0.1118 0.9810
vn 0.9608 0.1779 0.2125
vn 0.0973 -0.9255 -0.3660
vn 0.2019 -0.9581 -0.2031
vn 0.0529 -0.9835 -0.1728
vn 0.2379 -0.9702 0.0452
vn -0.5135 0.2667 0.8156
vn -0.8986 0.1218 0.4216
vn -0.5375 -0.0300 0.8428
vn 0.0977 -0.2836 -0.9540
vn -0.0122 0.9193 0.3935
vn -0.1036 0.9714 0.2139
vn -0.0327 0.9649 0.2607
vn -0.1792 0.9773 0.1128
vn -0.2229 -0.0366 0.9742
vn -0.1361 0.5254 0.8399
vn -0.0226 -0.6765 0.7361
vn -0.0367 -0.6069 0.7939
vn -0.8282 -0.2332 0.5097
vn 0.1295 -0.6871 0.7149
vn 0.1390 -0.6877 0.7126
vn -0.1233 -0.9814 -0.1472
vn 0.0166 -0.9917 0.1273
vn 0.2909 -0.6873 0.6656
vn 0.2273 0.8461 0.4822
vn 0.3881 0.8253 0.4103
vn 0.0683 0.9338 0.3512
vn 0.3093 0.7105 0.6321
vn 0.0919 -0.0714 -0.9932
vn -0.2255 -0.9079 -0.3535
vn 0.0597 -0.9778 -0.2008
vn -0.2020 0.9766 -0.0743
vn 0.3733 -0.4067 0.8338
vn -0.3857 -0.1860 0.9037
vn -0.5780 0.6296 0.5191
vn 0.0856 0.9955 -0.0407
vn 0.0147 0.9904 -0.1378
vn 0.3228 0.8968 0.3025
vn -0.2788 0.8109 -0.5145
vn -0.4966 -0.7228 0.4805
vn -0.2963 -0.7263 0.6202
vn -0.0401 0.9985 0.0375
vn -0.0131 0.9772 0.2120
vn -0.0782 0.9859 0.1483
vn -0.3238 0.9426 -0.0814
vn 0.2794 0.9524 -0.1223
vn 0.1066 0.9877 -0.1147
vn 0.6083 0.7837 -0.1256
vn 0.6917 -0.7124 -0.1181
vt 0.298123 0.551568
vt 0.361415 0.059934
vt 0.234074 0.077771
vt 0.182210 0.300016
vt 0.704763 0.285619
vt 0.610925 0.081160
vt 0.662091 0.000000
vt 0.552104 0.011895
vt 0.500000 0.383325
vt 0.500000 0.210580
vt 0.849713 0.006372
vt 0.679206 0.049082
vt 0.501643 0.865649
vt 0.351502 0.530770
vt 0.085746 0.512813
vt 0.377750 0.963079
vt 0.182210 0.964007
vt 0.861937 0.773858
vt 0.816333 0.845497
vt 0.672298 0.980188
vt 0.551864 0.066920
vt 0.500000 0.289165
vt 0.750455 0.550018
vt 0.690097 0.758617
vt 0.680361 0.688035
vt 0.707680 0.889539
vt 0.565108 0.967367
vt 0.565108 0.787060
vt 0.916115 0.719409
vt 0.905412 0.608751
vt 0.953500 0.469242
vt 0.887047 0.458932
vt 0.695541 0.952227
vt 0.500000 0.953156
vt 0.995127 0.268301
vt 0.931644 0.292633
vt 0.535024 0.026525
vt 0.332900 0.552473
vt 0.530621 0.489469
vt 0.987300 0.001184
vt 0.964851 0.301157
vt 0.500000 0.517228
vt 0.565108 0.517228
vt 0.730196 0.656340
vt 0.595703 0.500626
vt 0.549501 0.644090
vt 0.832735 0.644621
vt 0.810547 0.478165
vt 0.544922 0.802685
vt 0.837891 0.786084
vt 0.500000 1.000000
vt 0.500000 0.967367
vt 0.813068 0.887193
vt 0.754176 0.634115
vt 0.706089 0.773623
vt 0.800677 0.700466
vt 0.811485 0.545006
vt 0.372342 0.506646
vt 0.510220 0.040476
s 1
usemtl Material
f 3/1/1 37/2/2 16/3/3
f 15/4/4 3/1/1 16/3/3
f 1/5/5 10/6/6 38/7/7
f 14/8/8 10/6/6 11/9/9 13/10/10
f 2/11/11 1/5/12 38/7/13 37/12/13
f 5/13/14 39/14/15 3/15/1 8/16/16
f 8/16/16 3/1/1 9/17/17
f 4/18/18 5/19/19 7/20/20
f 16/21/21 14/8/21 13/10/22 15/22/22
f 1/5/5 36/23/23 31/24/24 18/25/25
f 18/25/25 31/24/24 6/26/26 12/27/27 21/28/27
f 5/19/19 4/18/18 19/29/28
f 19/29/28 4/18/18 33/30/29
f 5/19/19 19/29/28 20/31/30 17/32/31
f 8/33/32 9/34/33 7/20/20
f 17/32/31 20/31/30 26/35/34 25/36/35
f 2/37/36 39/38/15 17/39/37
f 23/40/38 25/36/35 26/35/34
f 1/5/5 23/40/39 24/41/40
f 20/31/41 1/5/5 24/41/40 26/35/42
f 1/5/12 2/11/11 23/40/43
f 2/11/36 17/32/37 25/36/44
f 10/6/6 18/25/25 22/42/45 11/9/9
f 25/36/44 23/40/46 2/11/36
f 24/41/40 23/40/39 26/35/42
f 1/5/5 18/25/25 10/6/6
f 29/43/47 27/44/48 28/28/47
f 22/45/49 18/46/50 27/47/51 29/48/49
f 18/46/50 21/49/52 28/50/52 27/47/51
f 9/34/33 30/51/53 7/20/20
f 6/26/54 4/18/18 7/20/20
f 5/19/19 8/33/32 7/20/20
f 7/20/20 30/51/53 12/52/55
f 31/24/56 4/18/57 32/53/58
f 6/26/59 31/24/56 32/53/58
f 4/18/60 6/26/60 32/53/60
f 12/52/55 6/26/54 7/20/20
f 20/54/61 33/55/61 34/56/61
f 33/30/29 20/31/30 19/29/28
f 35/57/62 33/30/63 4/18/64
f 33/55/65 35/57/66 34/56/67
f 1/5/5 20/31/41 35/57/62
f 9/17/17 3/1/1 15/4/4
f 1/5/5 35/57/62 36/23/23
f 35/57/66 20/54/68 34/56/67
f 36/23/23 35/57/62 4/18/64
f 31/24/24 36/23/23 4/18/64
f 37/12/69 38/7/69 14/8/69 16/21/69
f 38/7/7 10/6/6 14/8/8
f 37/2/2 3/58/1 2/59/36
f 17/39/37 39/38/15 5/13/14
f 3/15/1 39/14/15 2/37/36
f 42/1/70 50/3/71 66/2/72
f 15/4/73 50/3/71 42/1/70
f 40/5/74 67/7/75 48/6/76
f 49/8/77 13/10/10 11/9/9 48/6/76
f 41/11/78 66/12/79 67/7/79 40/5/80
f 44/13/81 47/16/82 42/15/70 68/14/83
f 47/16/82 9/17/84 42/1/70
f 43/18/85 46/20/86 44/19/87
f 50/21/88 15/22/22 13/10/22 49/8/88
f 40/5/74 52/25/89 60/24/90 65/23/91
f 52/25/89 21/28/27 12/27/27 45/26/92 60/24/90
f 44/19/87 53/29/93 43/18/85
f 53/29/93 62/30/94 43/18/85
f 44/19/87 51/32/95 54/31/96 53/29/93
f 47/33/97 46/20/86 9/34/33
f 51/32/95 57/36/98 58/35/99 54/31/96
f 41/37/100 51/39/101 68/38/83
f 55/40/102 58/35/99 57/36/98
f 40/5/74 56/41/103 55/40/104
f 54/31/105 58/35/106 56/41/103 40/5/74
f 40/5/80 55/40/107 41/11/78
f 41/11/100 57/36/108 51/32/101
f 48/6/76 11/9/9 22/42/45 52/25/89
f 57/36/108 41/11/100 55/40/109
f 56/41/103 58/35/106 55/40/104
f 40/5/74 48/6/76 52/25/89
f 29/43/47 28/28/47 59/44/110
f 22/45/49 29/48/49 59/47/111 52/46/112
f 52/46/112 59/47/111 28/50/52 21/49/52
f 9/34/33 46/20/86 30/51/53
f 45/26/113 46/20/86 43/18/85
f 44/19/87 46/20/86 47/33/97
f 46/20/86 12/52/55 30/51/53
f 60/24/114 61/53/115 43/18/116
f 45/26/117 61/53/115 60/24/114
f 43/18/118 61/53/118 45/26/118
f 12/52/55 46/20/86 45/26/113
f 54/54/119 63/56/119 62/55/119
f 62/30/94 53/29/93 54/31/96
f 64/57/120 43/18/121 62/30/122
f 62/55/123 63/56/124 64/57/125
f 40/5/74 64/57/120 54/31/105
f 9/17/84 15/4/73 42/1/70
f 40/5/74 65/23/91 64/57/120
f 64/57/125 63/56/124 54/54/126
f 65/23/91 43/18/121 64/57/120
f 60/24/90 43/18/121 65/23/91
f 66/12/127 50/21/127 49/8/127 67/7/127
f 67/7/75 49/8/77 48/6/76
f 66/2/72 41/59/100 42/58/70
f 51/39/101 44/13/81 68/38/83
f 42/15/70 41/37/100 68/14/83
o BouncerTurret
v -4.118024 69.947227 -27.091324
v 7.960982 47.249405 -26.320259
v -13.264553 18.762186 -5.325075
v -5.647515 50.204063 -9.806081
v 3.880947 16.647789 -2.383173
v 3.880947 50.204063 -6.864179
v -5.647515 61.778130 -2.941903
v -7.873960 61.778130 0.000000
v -20.233749 18.762186 0.000000
v -11.534499 50.204063 0.000000
v -4.118024 47.249405 -26.320259
v 3.880947 61.778130 0.000000
v 5.410439 70.875351 -27.324890
v -2.205925 63.555977 -46.566479
v 7.322537 49.901283 -44.207458
v -2.205925 49.901283 -44.207458
v 7.322537 63.555977 -46.566479
v -43.740170 47.249405 -26.320259
v -41.828068 63.555977 -46.566479
v -41.828068 49.901283 -44.207458
v 76.652924 47.249405 -26.320259
v 74.102386 69.489189 -25.304050
v 50.497948 49.901283 -44.207458
v 50.497948 63.555977 -46.566479
v -51.199848 55.771225 -38.671753
v 3.839745 16.623379 0.000000
v -57.070248 56.451035 -40.810734
v -43.740170 68.847725 -31.287937
v -4.118024 69.947227 27.091324
v 7.960982 47.249405 26.320259
v -13.264553 18.762186 5.325075
v -5.647515 50.204063 9.806081
v 3.880947 16.647789 2.383173
v 3.880947 50.204063 6.864179
v -5.647515 61.778130 2.941903
v -4.118024 47.249405 26.320259
v 5.410439 70.875351 27.324890
v -2.205925 63.555977 46.566479
v 7.322537 49.901283 44.207458
v -2.205925 49.901283 44.207458
v 7.322537 63.555977 46.566479
v -43.740170 47.249405 26.320259
v -41.828068 63.555977 46.566479
v -41.828068 49.901283 44.207458
v 76.652924 47.249405 26.320259
v 74.102386 69.489189 25.304050
v 50.497948 49.901283 44.207458
v 50.497948 63.555977 46.566479
v -51.199848 55.771225 38.671753
v -57.070248 56.451035 40.810734
v -43.740170 68.847725 31.287937
vn -0.7535 0.1499 -0.6402
vn -0.7824 0.2101 -0.5862
vn -0.9193 0.1438 -0.3664
vn 0.2009 -0.1569 -0.9670
vn -0.0771 0.9970 -0.0000
vn -0.0443 0.9873 0.1528
vn -0.0000 1.0000 -0.0000
vn -0.9189 0.1815 -0.3502
vn -0.9971 0.0146 -0.0743
vn -0.0000 -0.1702 -0.9854
vn -0.0429 0.9904 -0.1318
vn -0.0491 0.9933 -0.1049
vn -0.8097 0.2808 -0.5153
vn -0.0993 -0.9865 -0.1300
vn -0.0066 -0.9985 -0.0546
vn -0.0076 -0.9991 -0.0414
vn -0.0000 -0.9892 -0.1467
vn -0.1239 -0.1689 -0.9778
vn -0.1172 -0.1691 -0.9786
vn 0.9999 0.0102 -0.0000
vn 0.9908 0.0519 0.1250
vn 0.9896 0.1108 0.0923
vn -0.0216 -0.9871 0.1588
vn -0.0142 0.9445 -0.3282
vn 0.0175 0.9475 -0.3194
vn -0.0247 0.9441 -0.3287
vn -0.1594 -0.9739 -0.1614
vn -0.4216 -0.8894 -0.1769
vn -0.1913 -0.9678 -0.1639
vn -0.4996 0.7973 -0.3387
vn -0.1972 0.9205 -0.3374
vn -0.2222 0.9142 -0.3388
vn -0.0542 0.1283 0.9903
vn -0.3211 0.1521 0.9347
vn -0.3071 0.1511 0.9396
vn 0.0607 0.9964 0.0589
vn -0.9980 -0.0022 -0.0639
vn 0.9923 -0.0633 0.1067
vn -0.0147 -0.0019 0.9999
vn 1.0000 -0.0009 -0.0000
vn 0.9999 -0.0008 0.0154
vn 0.0998 0.0568 -0.9934
vn 0.0887 -0.9805 0.1752
vn 0.0633 0.1699 0.9834
vn -0.6709 0.1662 0.7227
vn -0.2810 -0.1634 -0.9457
vn -0.7535 0.1499 0.6402
vn -0.9193 0.1438 0.3664
vn -0.7824 0.2101 0.5862
vn 0.2009 -0.1569 0.9670
vn -0.0443 0.9873 -0.1528
vn -0.9971 0.0146 0.0743
vn -0.9189 0.1815 0.3502
vn -0.0000 -0.1702 0.9854
vn -0.0491 0.9933 0.1049
vn -0.0429 0.9904 0.1318
vn -0.8097 0.2808 0.5153
vn -0.0993 -0.9865 0.1300
vn -0.0066 -0.9985 0.0546
vn -0.0000 -0.9892 0.1467
vn -0.0076 -0.9991 0.0414
vn -0.1172 -0.1691 0.9786
vn -0.1239 -0.1689 0.9778
vn 0.9896 0.1108 -0.0923
vn 0.9908 0.0519 -0.1250
vn -0.0216 -0.9871 -0.1588
vn -0.0142 0.9445 0.3282
vn 0.0175 0.9475 0.3194
vn -0.0247 0.9441 0.3287
vn -0.1594 -0.9739 0.1614
vn -0.1913 -0.9678 0.1639
vn -0.4216 -0.8894 0.1769
vn -0.4996 0.7973 0.3387
vn -0.2222 0.9142 0.3388
vn -0.1972 0.9205 0.3374
vn -0.0542 0.1283 -0.9903
vn -0.3071 0.1511 -0.9396
vn -0.3211 0.1521 -0.9347
vn 0.0607 0.9964 -0.0589
vn -0.9980 -0.0022 0.0639
vn 0.9923 -0.0633 -0.1067
vn -0.0147 -0.0019 -0.9999
vn 0.9999 -0.0008 -0.0154
vn 0.0998 0.0568 0.9934
vn 0.0887 -0.9805 -0.1752
vn 0.0633 0.1699 -0.9834
vn -0.6709 0.1662 -0.7227
vn -0.2810 -0.1634 0.9457
vt 0.545491 0.039424
vt 0.545491 0.700357
vt 0.614943 0.700357
vt 0.583206 0.039424
vt 0.594107 0.700357
vt 0.562370 0.000450
vt 0.545491 0.807366
vt 0.566327 0.807366
vt 0.706069 0.673040
vt 0.832757 0.697558
vt 0.849465 0.823803
vt 0.713184 0.891475
vt 0.711530 0.882894
vt 0.698871 0.878659
vt 0.808699 0.758114
vt 0.741253 0.872729
vt 0.836215 0.656051
vt 0.990247 0.648342
vt 0.951040 0.702613
vt 0.545688 0.000000
vt 0.846596 0.780616
vt 0.995237 0.788260
s 1
usemtl Material
f 77/60/128 78/61/129 72/62/130 71/63/128
f 71/63/131 72/62/131 74/64/131 73/65/131
f 80/66/132 75/67/133 76/66/134
f 72/62/130 75/67/135 79/68/136
f 83/69/137 84/69/137 82/70/137 85/70/137
f 75/67/133 80/66/132 81/71/138 69/72/139
f 72/62/130 78/61/129 76/66/140 75/67/135
f 71/63/141 73/65/141 77/60/141
f 70/68/142 79/68/143 84/69/144 83/69/144
f 82/70/137 84/69/137 88/69/145 87/70/146
f 80/66/147 70/68/148 81/71/149
f 74/64/150 72/62/150 79/68/143 70/68/142
f 85/70/151 81/71/138 90/73/152 92/70/152
f 69/72/139 81/71/138 85/70/151 82/70/153
f 86/68/154 95/74/155 88/69/156
f 95/74/157 96/75/158 87/70/159
f 79/68/160 69/72/160 96/75/161 86/68/162
f 84/69/144 79/68/143 86/68/154 88/69/156
f 89/76/163 91/77/163 93/78/163
f 79/68/136 75/67/135 69/72/164
f 70/68/148 80/66/147 74/64/165
f 70/68/142 83/69/144 91/69/144 89/68/144
f 81/71/166 70/68/166 89/68/166 90/73/166
f 83/69/137 85/70/137 92/70/137 91/69/137
f 94/79/167 73/65/168 80/66/147
f 90/80/169 89/76/169 93/78/169
f 92/81/170 90/80/170 93/78/170
f 91/77/171 92/81/171 93/78/171
f 80/66/147 73/65/168 74/64/165
f 69/72/139 82/70/153 87/70/159 96/75/158
f 96/75/161 95/74/172 86/68/162
f 88/69/145 95/74/173 87/70/146
f 77/60/174 99/63/174 100/62/175 78/61/176
f 99/63/177 101/65/177 102/64/177 100/62/177
f 80/66/132 76/66/134 103/67/178
f 100/62/175 104/68/179 103/67/180
f 107/69/181 109/70/181 106/70/181 108/69/181
f 103/67/178 97/72/182 105/71/183 80/66/132
f 100/62/175 103/67/180 76/66/184 78/61/176
f 99/63/185 77/60/185 101/65/185
f 98/68/186 107/69/187 108/69/187 104/68/188
f 106/70/181 111/70/189 112/69/190 108/69/181
f 80/66/147 105/71/191 98/68/192
f 102/64/193 98/68/186 104/68/188 100/62/193
f 109/70/194 116/70/195 114/73/195 105/71/183
f 97/72/182 106/70/196 109/70/194 105/71/183
f 110/68/197 112/69/198 118/74/199
f 118/74/200 111/70/201 119/75/202
f 104/68/203 110/68/204 119/75/205 97/72/203
f 108/69/187 112/69/198 110/68/197 104/68/188
f 113/76/206 117/78/206 115/77/206
f 104/68/179 97/72/207 103/67/180
f 98/68/192 102/64/208 80/66/147
f 98/68/186 113/68/187 115/69/187 107/69/187
f 105/71/209 114/73/209 113/68/209 98/68/209
f 107/69/181 115/69/181 116/70/181 109/70/181
f 94/79/167 80/66/147 101/65/210
f 114/80/211 117/78/211 113/76/211
f 116/81/212 117/78/212 114/80/212
f 115/77/213 117/78/213 116/81/213
f 80/66/147 102/64/208 101/65/210
f 97/72/182 119/75/202 111/70/201 106/70/196
f 119/75/205 110/68/204 118/74/214
f 112/69/190 111/70/189 118/74/215
