# Blender 4.4.1
# www.blender.org
o PlasmaLauncher
v 6.289312 0.759604 0.193793
v 6.289312 0.759604 -1.325415
v 6.289312 -0.759604 0.193793
v 6.289312 -0.759604 -1.325415
v -2.640573 0.759604 0.193793
v -2.640573 0.759604 -1.325415
v -2.640573 -0.759604 0.193793
v -2.640573 -0.759604 -1.325415
v 6.289312 1.101251 -0.565811
v -2.640573 -1.101251 -0.565811
v 6.289312 -1.101251 -0.565811
v -2.640573 1.101251 -0.565811
v -1.871619 0.000000 -0.565811
v -3.497915 0.829373 -0.565811
v -3.497915 -0.572072 0.006261
v -3.497915 -0.829373 -0.565811
v -3.497915 -0.572072 -1.137883
v -3.497915 0.572072 -1.137883
v -3.497915 0.572072 0.006261
v -2.435883 -1.627097 -0.724779
v -2.435883 -1.122313 0.397534
v -2.435883 1.122313 0.397534
v -2.435883 1.627097 -0.724779
v -3.702605 1.225397 -0.724779
v -3.702605 -0.845235 0.120456
v -3.702605 -1.225397 -0.724779
v -3.702605 0.845235 0.120456
v -2.590111 0.979092 -1.472692
v -2.590111 -0.979092 -1.472692
v -3.695184 0.737373 -1.230973
v -3.695184 -0.737373 -1.230973
vn -0.0000 -0.0000 1.0000
vn -0.0000 -0.9120 0.4102
vn -0.2778 -0.8761 -0.3940
vn -0.0000 -0.0000 -1.0000
vn 0.1221 -0.9052 0.4071
vn -0.0000 0.9120 0.4102
vn -0.0000 0.9120 -0.4102
vn 0.1221 0.9052 0.4071
vn -0.8225 0.5188 -0.2333
vn -0.0000 -0.9120 -0.4102
vn -0.2137 -0.0000 0.9769
vn 0.0633 -0.5460 0.8354
vn 0.0927 -0.0000 0.9957
vn 0.0927 -0.0000 -0.9957
vn 0.1221 0.9052 -0.4071
vn 0.1221 -0.9052 -0.4071
vn -1.0000 -0.0000 -0.0000
vn -0.2778 0.8761 -0.3940
vn -0.0974 -0.4451 0.8902
vn -0.2778 0.8761 0.3940
vn -0.2778 -0.8761 0.3940
vn -0.0974 0.4451 0.8902
vn 0.1028 -0.3243 -0.9403
vn 0.8966 -0.4039 -0.1817
vn 0.1028 0.3243 -0.9403
vn -0.8225 -0.5188 -0.2333
vn 0.8966 0.4039 -0.1817
vn -0.2137 -0.0000 -0.9769
vn 0.9460 -0.0000 0.3241
vn 0.0633 0.5460 0.8354
vn -0.4268 -0.0000 0.9044
vt 0.251579 0.984609
vt 0.251579 0.813365
vt 0.298537 0.813365
vt 0.298537 0.984609
vt 0.322181 0.984609
vt 0.322181 0.813365
vt 0.346036 0.813365
vt 0.322057 0.796924
vt 0.345943 0.796924
vt 0.204080 0.813365
vt 0.204080 0.984609
vt 0.156019 0.984609
vt 0.156019 0.813365
vt 0.984929 0.899159
vt 0.997237 0.925715
vt 0.974917 0.927792
vt 0.227935 0.813365
vt 0.227935 0.984609
vt 0.926975 0.925715
vt 0.947615 0.906639
vt 0.298448 0.796924
vt 0.326127 0.792998
vt 0.301641 0.792998
vt 0.346036 0.984609
vt 0.251668 0.796924
vt 0.155926 0.796924
vt 0.154425 0.793141
vt 0.154908 0.814332
vt 0.984929 0.952271
vt 0.947615 0.944792
vt 0.228059 0.796924
vt 0.204173 0.796924
vt 0.249219 0.817290
vt 0.248475 0.792998
vt 0.224864 0.817290
vt 0.223989 0.792998
vt 0.325252 0.817290
vt 0.300897 0.817290
vt 0.205191 0.814332
vt 0.205674 0.793141
s 0
f 1/1/1 5/2/1 7/3/1 3/4/1
f 11/5/2 3/4/2 7/3/2 10/6/2
f 8/7/3 10/6/3 16/8/3 17/9/3
f 6/10/4 2/11/4 4/12/4 8/13/4
f 2/14/5 9/15/5 13/16/5
f 12/17/6 5/2/6 1/1/6 9/18/6
f 6/10/7 12/17/7 9/18/7 2/11/7
f 11/19/8 4/20/8 13/16/8
f 15/21/9 16/8/9 26/22/9 25/23/9
f 4/24/10 11/5/10 10/6/10 8/7/10
f 7/3/11 5/2/11 19/25/11 15/21/11
f 8/13/12 17/26/12 31/27/12 29/28/12
f 4/20/13 2/14/13 13/16/13
f 1/29/14 3/30/14 13/16/14
f 3/30/15 11/19/15 13/16/15
f 9/15/16 1/29/16 13/16/16
f 17/9/17 16/8/17 14/31/17 18/32/17
f 16/8/17 15/21/17 19/25/17 14/31/17
f 12/17/18 6/10/18 18/32/18 14/31/18
f 19/25/19 5/2/19 22/33/19 27/34/19
f 22/33/20 23/35/20 24/36/20 27/34/20
f 20/37/21 21/38/21 25/23/21 26/22/21
f 7/3/22 15/21/22 25/23/22 21/38/22
f 12/17/23 14/31/23 24/36/23 23/35/23
f 5/2/24 12/17/24 23/35/24 22/33/24
f 16/8/25 10/6/25 20/37/25 26/22/25
f 14/31/26 19/25/26 27/34/26 24/36/26
f 10/6/27 7/3/27 21/38/27 20/37/27
f 28/39/28 29/28/28 31/27/28 30/40/28
f 6/10/29 8/13/29 29/28/29 28/39/29
f 18/32/30 6/10/30 28/39/30 30/40/30
f 17/26/31 18/32/31 30/40/31 31/27/31
o Cannon
v -1.974852 -0.707000 -1.626559
v -1.974852 -0.707000 -0.212559
v -1.974852 0.707000 -1.626559
v -1.974852 0.707000 -0.212559
v -0.692662 -0.539478 -1.459037
v -0.204829 -0.539478 -0.380081
v -0.692662 0.539478 -1.459037
v -0.204829 0.539478 -0.380081
v -3.319305 0.000000 -0.919559
v 0.025148 0.707000 -0.212559
v 0.025148 0.707000 -1.626559
v 0.025148 -0.707000 -1.626559
v 0.025148 -0.707000 -0.212559
v -1.974852 0.000000 -1.919559
v -1.974852 0.000000 0.547004
v 0.025148 0.000000 -1.919559
v 0.430548 0.000000 0.547004
v -0.692662 0.000000 -1.682611
v 0.545571 0.000000 -0.156507
v -1.974852 -1.000000 -0.919559
v -1.974852 1.000000 -0.919559
v 0.025148 1.000000 -0.919559
v 0.025148 -1.000000 -0.919559
v -0.692662 0.763052 -0.919559
v -0.692662 -0.763052 -0.919559
v 2.429406 -0.459845 -1.379403
v 2.429406 -0.459845 -0.459714
v 2.429406 0.459845 -1.379403
v 2.429406 0.459845 -0.459714
v 2.429406 0.000000 -1.569976
v 2.429406 0.000000 -0.269142
v 2.429406 0.650417 -0.919559
v 2.429406 -0.650417 -0.919559
v -0.223424 0.000000 -0.919559
v 2.555164 0.763052 -0.919559
v 2.555164 0.539478 -1.459037
v 2.555164 0.000000 -1.682611
v 2.555164 0.000000 -0.156507
v 2.555164 -0.539478 -0.380081
v 2.555164 -0.763052 -0.919559
v 2.555164 -0.539478 -1.459037
v 2.555164 0.539478 -0.380081
v 8.089318 -0.459845 -1.379403
v 8.089318 -0.459845 -0.459714
v 8.089318 0.459845 -1.379403
v 8.089318 0.459845 -0.459714
v 8.089318 0.000000 -1.569976
v 8.089318 0.000000 -0.269142
v 8.089318 0.650417 -0.919559
v 8.089318 -0.650417 -0.919559
vn -0.2936 0.6760 -0.6760
vn -0.2936 -0.0000 -0.9559
vn -0.9990 -0.0000 -0.0458
vn -0.2936 0.9559 -0.0000
vn -0.2999 0.7996 0.5203
vn 0.1414 0.8439 0.5176
vn -0.0000 1.0000 -0.0000
vn -0.0000 -0.0000 -1.0000
vn -0.0000 0.7071 -0.7071
vn -0.0000 -1.0000 -0.0000
vn 0.1414 -0.8439 0.5176
vn -0.2999 -0.7996 0.5203
vn -0.2936 -0.9559 -0.0000
vn -0.0000 -0.7071 -0.7071
vn -0.2936 -0.6760 -0.6760
vn 0.6113 -0.0000 0.7914
vn -0.3463 -0.0000 0.9381
vn 0.3724 -0.9267 0.0501
vn 0.3134 -0.6715 0.6715
vn 0.3916 -0.9179 -0.0643
vn 0.3135 -0.0000 0.9496
vn 0.3134 0.6715 0.6715
vn 0.4404 0.2560 -0.8605
vn 0.4953 -0.4939 -0.7147
vn 0.5114 -0.2410 -0.8249
vn 0.3724 0.9267 0.0501
vn 0.4953 0.4939 -0.7147
vn 0.5114 0.2410 -0.8249
vn 0.3916 0.9179 -0.0643
vn 0.4404 -0.2560 -0.8605
vn -0.0000 -0.9931 -0.1171
vn -0.0000 0.9931 -0.1171
vn -0.0000 0.8461 0.5330
vn -0.0000 0.7071 0.7071
vn -0.0000 -0.0000 1.0000
vn -0.0000 -0.7071 0.7071
vn -0.0000 -0.8461 0.5330
vn 0.6672 -0.7449 -0.0000
vn 0.6671 -0.5268 0.5268
vn 0.6672 -0.0000 0.7449
vn 0.6671 0.5268 -0.5268
vn 0.6672 -0.0000 -0.7449
vn 0.6671 0.5268 0.5268
vn 0.6672 0.7449 -0.0000
vn 0.6671 -0.5268 -0.5268
vn 0.0780 -0.0000 -0.9970
vn 0.0780 0.7050 -0.7050
vn 1.0000 -0.0000 -0.0000
vn 0.0780 0.7050 0.7050
vn 0.0780 -0.0000 0.9970
vn 0.0780 -0.9970 -0.0000
vn 0.0780 -0.7050 -0.7050
vn 0.0780 -0.7050 0.7050
vn 0.0780 0.9970 -0.0000
vn 0.9869 -0.0000 0.1614
vt 0.563344 0.753239
vt 0.501373 0.753239
vt 0.501373 0.871084
vt 0.499134 0.753239
vt 0.561105 0.753239
vt 0.561105 0.577933
vt 0.499134 0.577933
vt 0.501373 0.640851
vt 0.548660 0.640851
vt 0.548660 0.356170
vt 0.501373 0.356170
vt 0.501373 0.577933
vt 0.439403 0.577933
vt 0.439403 0.753239
vt 0.501373 0.542398
vt 0.499134 0.871084
vt 0.437164 0.753239
vt 0.499134 0.640851
vt 0.451847 0.640851
vt 0.437164 0.577933
vt 0.454087 0.640851
vt 0.501373 0.532316
vt 0.548660 0.598091
vt 0.563344 0.577933
vt 0.546421 0.598091
vt 0.454087 0.598091
vt 0.454087 0.356170
vt 0.451847 0.356170
vt 0.499134 0.356170
vt 0.546421 0.356170
vt 0.458828 0.367193
vt 0.499134 0.367193
vt 0.499134 -0.128916
vt 0.458827 -0.128916
vt 0.501373 0.367193
vt 0.461067 0.367193
vt 0.461067 -0.128916
vt 0.501373 -0.128916
vt 0.539441 0.367193
vt 0.539441 -0.128916
vt 0.541680 0.367193
vt 0.501373 0.161979
vt 0.499134 0.161979
vt 0.541680 -0.128916
vt 0.561105 0.493087
vt 0.566018 0.431116
vt 0.586787 0.431116
vt 0.561105 0.369145
s 1
f 34/41/32 45/42/33 40/43/34
f 52/44/35 35/45/36 41/46/37 53/47/38
f 49/48/39 38/49/40 67/50/40 68/51/39
f 54/47/41 44/46/42 33/45/43 51/44/44
f 45/42/33 47/52/39 43/53/45 32/54/46
f 48/55/47 46/42/48 33/54/43 44/53/42
f 35/45/36 52/44/35 40/56/34
f 32/57/46 51/44/44 40/56/34
f 33/54/43 46/42/48 40/43/34
f 55/58/49 38/59/50 42/60/50 53/47/51
f 49/48/52 36/61/53 43/53/53 47/52/52
f 50/62/54 39/63/55 41/64/56
f 56/58/57 37/65/58 44/46/59 54/47/60
f 37/66/58 50/62/61 44/53/59
f 38/49/50 49/48/52 47/52/52 42/64/50
f 41/64/37 35/41/36 46/42/48 48/55/47
f 34/41/32 42/64/40 47/52/39 45/42/33
f 36/61/45 49/48/39 68/51/39 72/67/45
f 56/58/62 36/59/45 72/68/45 71/69/41
f 40/43/34 46/42/48 35/41/36
f 40/43/34 45/42/33 32/54/46
f 36/59/53 56/58/57 54/47/60 43/60/53
f 39/65/55 55/58/49 53/47/51 41/46/56
f 43/60/45 54/47/41 51/44/44 32/57/46
f 55/58/63 39/65/64 73/70/65 66/69/38
f 34/57/32 52/44/35 53/47/38 42/60/40
f 40/56/34 52/44/35 34/57/32
f 40/56/34 51/44/44 33/45/43
f 59/71/40 63/72/38 80/73/38 76/74/40
f 62/75/66 58/76/67 75/77/67 79/78/66
f 57/76/45 61/75/39 78/78/39 74/77/45
f 63/72/38 60/79/65 77/80/65 80/73/38
f 37/65/68 56/58/62 71/69/41 70/70/67
f 39/63/64 50/62/66 69/51/66 73/50/65
f 50/62/66 37/66/68 70/67/67 69/51/66
f 38/59/40 55/58/63 66/69/38 67/68/40
f 63/72/69 59/71/70 67/68/70 66/69/69
f 59/81/70 61/75/71 68/51/71 67/50/70
f 58/76/72 62/75/73 69/51/73 70/67/72
f 57/71/74 64/72/75 71/69/75 72/68/74
f 61/75/71 57/76/74 72/67/74 68/51/71
f 62/75/73 60/81/76 73/50/76 69/51/73
f 60/79/76 63/72/69 66/69/69 73/70/76
f 64/72/75 58/79/72 70/70/72 71/69/75
f 79/78/77 75/77/78 65/82/79
f 74/77/80 78/78/81 65/82/79
f 80/73/82 77/80/83 65/83/79
f 78/78/81 76/84/84 65/82/79
f 58/79/67 64/72/41 81/73/41 75/80/67
f 60/81/65 62/75/66 79/78/66 77/84/65
f 64/72/41 57/71/45 74/74/45 81/73/41
f 61/75/39 59/81/40 76/84/40 78/78/39
f 76/74/84 80/73/82 65/83/79
f 75/80/78 81/73/85 65/83/79
f 77/84/83 79/78/77 65/82/79
f 81/73/85 74/74/80 65/83/79
f 44/85/42 50/86/86 48/87/47
f 41/88/37 48/87/47 50/86/86
o HovernadeLauncher
v -3.318440 -1.000000 -1.906844
v -3.318440 -1.000000 0.093156
v -3.318440 1.000000 -1.906844
v -3.318440 1.000000 0.093156
v -1.536369 -0.530330 -1.437174
v -1.536369 -0.530330 -0.376514
v -1.536369 0.530330 -1.437174
v -1.536369 0.530330 -0.376514
v -1.536369 0.000000 -1.656844
v -1.536369 0.000000 -0.156844
v -1.536369 0.750000 -0.906844
v -1.536369 -0.750000 -0.906844
v -1.536369 1.000000 -1.906844
v -1.536369 -1.000000 0.445035
v -1.536369 -1.000000 -1.906844
v -1.536369 1.000000 0.445035
v 1.663492 0.000000 -1.407880
v 1.555457 0.000000 -0.156844
v 1.663492 0.501036 -0.906844
v 1.555457 -0.750000 -0.906844
v 1.663492 0.354286 -1.261130
v 1.663492 -0.354286 -0.552558
v 1.663492 -0.354286 -1.261130
v 1.663492 0.354286 -0.552558
v 1.718184 -0.750000 -1.819762
v 1.718184 0.750000 -1.819762
v 1.718184 0.750000 0.357953
v 1.718184 -0.750000 0.357953
v 1.718184 0.000000 -1.656844
v 1.718184 0.000000 -0.156844
v 2.531823 -0.750000 -1.819762
v 2.531823 0.750000 -1.819762
v 2.531823 0.750000 0.006074
v 2.531823 -0.750000 0.006074
v 2.531823 0.000000 -1.469344
v 2.531823 0.000000 -0.344344
v 1.555457 0.750000 -0.906844
v 1.555457 0.530330 -1.437174
v 1.555457 0.000000 -1.656844
v 1.663492 0.000000 -0.405808
v 1.555457 -0.530330 -0.376514
v 1.663492 -0.501036 -0.906844
v 1.555457 -0.530330 -1.437174
v 1.555457 0.530330 -0.376514
v 3.466490 0.000000 -0.906844
v 6.021209 0.000000 -1.621775
v 6.021209 0.000000 -0.191913
v 6.021209 0.714931 -0.906844
v 6.021209 -0.714931 -0.906844
v 6.021209 0.505532 -1.412376
v 6.021209 -0.505532 -0.401312
v 6.021209 -0.505532 -1.412376
v 6.021209 0.505532 -0.401312
vn -1.0000 -0.0000 -0.0000
vn -0.0000 0.7071 -0.7071
vn -0.0000 1.0000 -0.0000
vn -0.0000 -0.0000 1.0000
vn -0.0000 -0.7071 0.7071
vn -0.1937 -0.0000 0.9811
vn -0.0868 -0.0000 0.9962
vn -0.0000 -1.0000 -0.0000
vn -0.0000 -0.7071 -0.7071
vn -0.0000 -0.0000 -1.0000
vn -0.0000 0.7071 0.7071
vn 0.0130 -0.0000 -0.9999
vn 1.0000 -0.0000 -0.0000
vn -0.0490 -0.9988 -0.0000
vn -0.0490 -0.7063 -0.7063
vn -0.0490 0.7063 0.7063
vn -0.0490 -0.0000 0.9988
vn -0.0490 -0.7063 0.7063
vn -0.0490 0.7063 -0.7063
vn -0.0490 0.9988 -0.0000
vn -0.0043 -0.0000 1.0000
vn -0.0042 -0.2296 0.9733
vn -0.0042 0.2296 0.9733
vn 0.0137 -0.0000 -0.9999
vn 0.2113 -0.0000 0.9774
vn 0.0094 0.5379 -0.8430
vn 0.0094 -0.5379 -0.8430
vn 0.3969 -0.0000 0.9178
vn 0.9174 0.3981 -0.0000
vn 0.9174 0.2815 -0.2815
vn 0.9174 -0.0000 -0.3981
vn 0.9174 -0.2815 0.2815
vn 0.9174 -0.0000 0.3981
vn 0.9174 -0.2815 -0.2815
vn 0.9174 -0.3981 -0.0000
vn 0.9174 0.2815 0.2815
vn 0.2695 -0.0000 -0.9630
vn 0.2695 0.6809 -0.6809
vn 0.2695 -0.9630 -0.0000
vn 0.2695 -0.6809 -0.6809
vn 0.2695 -0.6809 0.6809
vn 0.2695 -0.0000 0.9630
vn 0.2695 0.6809 0.6809
vn -0.0490 -0.0000 -0.9988
vn 0.2695 0.9630 -0.0000
vt 0.801594 0.717883
vt 0.703770 0.717883
vt 0.703770 0.620060
vt 0.801594 0.620060
vt 0.217219 0.012618
vt 0.248496 0.012618
vt 0.248496 0.114983
vt 0.217219 0.114983
vt 0.311050 0.012618
vt 0.342327 0.012618
vt 0.342327 0.114983
vt 0.311050 0.114983
vt 0.807598 0.715067
vt 0.851992 0.715067
vt 0.851992 0.781883
vt 0.807598 0.781883
vt 0.896387 0.715067
vt 0.896387 0.781883
vt 0.154665 0.012618
vt 0.185942 0.012618
vt 0.185942 0.114983
vt 0.154665 0.114983
vt 0.279773 0.012618
vt 0.279773 0.114983
vt 0.763203 0.715067
vt 0.763203 0.781883
vt 0.718808 0.781883
vt 0.718808 0.715067
vt 0.874190 0.781883
vt 0.741005 0.781883
vt 0.829795 0.781883
vt 0.785400 0.781883
vt 0.696611 0.781883
vt 0.123388 0.118559
vt 0.154665 0.118559
vt 0.154665 0.262835
vt 0.123388 0.262835
vt 0.279773 0.118559
vt 0.311050 0.118559
vt 0.311050 0.262835
vt 0.279773 0.262835
vt 0.342327 0.118559
vt 0.373604 0.118559
vt 0.373604 0.262835
vt 0.342327 0.262835
vt 0.217219 0.118559
vt 0.248496 0.118559
vt 0.248496 0.262835
vt 0.217219 0.262835
vt 0.373604 0.012618
vt 0.373604 0.114983
vt 0.123388 0.012618
vt 0.123388 0.114983
vt 0.721568 0.848699
vt 0.741005 0.848699
vt 0.760443 0.848699
vt 0.810358 0.848699
vt 0.829795 0.848699
vt 0.760443 0.865403
vt 0.721568 0.865403
vt 0.849232 0.848699
vt 0.752682 0.696484
vt 0.733836 0.713624
vt 0.771528 0.713624
vt 0.752682 0.641459
vt 0.771528 0.624319
vt 0.733836 0.624319
vt 0.899147 0.865403
vt 0.849232 0.865403
vt 0.899147 0.848699
vt 0.810358 0.865403
vt 0.918585 0.848699
vt 0.185942 0.118559
vt 0.785400 0.884592
vt 0.829795 0.937041
vt 0.851992 0.937041
vt 0.785400 0.937041
vt 0.807598 0.937041
vt 0.763203 0.937041
vt 0.741005 0.937041
vt 0.718808 0.937041
vt 0.185942 0.262835
vt 0.874190 0.937041
vt 0.696611 0.937041
s 1
f 83/89/87 85/90/87 84/91/87 82/92/87
f 88/93/88 92/94/89 118/95/89 119/96/88
f 91/97/90 87/98/91 122/99/91 99/100/90
f 85/101/92 83/102/92 95/103/93 97/104/93
f 83/102/94 82/105/94 96/106/94 95/103/94
f 86/107/95 90/108/96 120/109/96 124/110/95
f 92/94/89 89/111/97 125/112/97 118/95/89
f 84/113/89 85/101/89 97/104/89 94/114/89
f 96/115/98 82/116/96 84/113/96 94/114/98
f 93/117/99 87/103/99 95/103/99 96/106/99
f 94/114/99 88/114/99 90/118/99
f 91/119/99 89/104/99 92/120/99 97/104/99
f 90/118/99 86/115/99 93/121/99 96/115/99
f 94/114/99 97/104/99 92/120/99 88/114/99
f 95/103/99 87/103/99 91/119/99
f 123/122/100 104/123/101 133/124/101 130/125/100
f 105/126/102 121/127/103 128/128/103 134/129/102
f 103/130/104 123/131/100 130/132/100 132/133/104
f 102/134/105 100/135/106 129/136/106 131/137/105
f 87/98/91 93/138/94 101/139/94 122/99/91
f 89/111/97 91/97/90 99/100/90 125/112/97
f 93/140/94 86/107/95 124/110/95 101/141/94
f 90/108/96 88/93/88 119/96/88 120/109/96
f 90/118/107 96/115/108 106/142/108 110/143/107
f 94/114/109 90/118/107 110/143/107 107/144/109
f 108/145/87 107/144/87 110/143/87 111/146/87
f 106/142/110 107/144/110 113/147/96 112/148/96
f 97/104/93 95/103/93 109/149/111 108/145/111
f 91/119/112 97/104/112 108/145/112 111/146/112
f 95/103/113 91/119/113 111/146/113 109/149/113
f 96/115/98 94/114/98 107/144/110 106/142/110
f 117/150/99 114/151/99 115/152/99
f 116/153/99 112/154/99 113/155/99
f 112/156/94 115/157/94 109/149/94 106/158/94
f 108/145/111 109/149/111 115/157/114 114/159/114
f 106/158/87 109/149/87 111/146/87 110/160/87
f 112/154/99 116/153/99 117/150/99 115/152/99
f 113/147/89 107/144/89 108/145/89 114/159/89
f 114/151/99 117/150/99 116/153/99 113/155/99
f 100/135/115 102/134/116 119/96/116 118/95/115
f 102/134/116 98/161/117 120/109/117 119/96/116
f 103/130/118 121/127/119 99/100/119 122/99/118
f 104/123/120 123/122/121 101/141/121 124/110/120
f 98/161/117 104/123/120 124/110/120 120/109/117
f 121/127/119 105/126/122 125/112/122 99/100/119
f 105/126/122 100/135/115 118/95/115 125/112/122
f 123/131/121 103/130/118 122/99/118 101/139/121
f 126/162/99 128/163/123 132/164/124
f 129/165/125 134/166/126 126/162/99
f 131/167/127 126/162/99 127/168/128
f 127/168/128 126/162/99 133/169/129
f 98/161/130 102/134/105 131/137/105 127/170/130
f 100/135/106 105/126/102 134/129/102 129/136/106
f 104/123/101 98/161/130 127/170/130 133/124/101
f 121/127/103 103/130/104 132/133/104 128/128/103
f 126/162/99 131/167/127 129/165/125
f 126/162/99 134/166/126 128/163/123
f 132/164/124 130/171/131 126/162/99
f 133/169/129 126/162/99 130/172/131
